<svg xmlns="http://www.w3.org/2000/svg" xml:space="preserve" height="42" width="42" y="252">
    <path fill="#3B82F6" d="M0 0h42v42H0zM5.281 4.431l32.111 32.111" />
    <path fill="#fff" d="m5.989 3.725 32.11 32.11-1.413 1.415L4.574 5.139z" />
    <g fill="#fff">
        <path d="M32 23.232c0 4.62-3.38 8.366-8 8.366s-8-3.746-8-8.366V19h16v4.232z" />
        <path
            d="M24 32.598c-5.047 0-9-4.114-9-9.366V19l1-1h16l1 1v4.232c0 5.252-3.953 9.366-9 9.366zM17 20v3.232c0 4.2 3.01 7.366 7 7.366s7-3.167 7-7.366V20H17z" />
    </g>
    <path
        d="M25 36.701v-2c1 0 2.144-.195 3.052-.579l.686 1.842c-1.157.49-1.739.737-3.739.737zM22 36.701c-5 0-9.455-3.701-9.455-9.701h2c0 4 3.455 7.7 7.455 7.7v2z"
        fill="#fff" />
    <circle cy="18.803" cx="24.442" r="8.366" fill="#3B82F6" />
    <path
        d="M9.98 32.21a9.321 9.321 0 0 1-1.6-5.237c0-1.249.242-2.462.72-3.607l1.846.77a7.322 7.322 0 0 0-.566 2.837c0 1.476.435 2.9 1.257 4.118L9.98 32.209z"
        fill="#fff" />
    <g fill="#fff">
        <path
            d="M27 9.8v2.104c2.803 1.043 4.809 3.738 4.809 6.899 0 4.061-3.305 7.365-7.367 7.365s-7.366-3.304-7.366-7.365A7.351 7.351 0 0 1 20 12.94V10.56c-2.93 1.585-4.924 4.685-4.924 8.243 0 5.164 4.202 9.365 9.366 9.365s9.367-4.201 9.367-9.365c0-4.277-2.885-7.886-6.81-9.003z" />
        <path
            d="M24.634 20.971c-2.188 0-4.634-1.716-4.634-4.014V4h9v12.958c0 2.138-2.04 4.013-4.366 4.013zM22 6v10.958c0 1.037 1.484 2.014 2.634 2.014 1.194 0 2.366-.998 2.366-2.014V6h-5z" />
    </g>
</svg>