<svg xmlns="http://www.w3.org/2000/svg" xml:space="preserve" height="42" width="42" y="420">
    <path fill="#3B82F6" d="M0 0h42v42H0zM8.585 8.864l3.396 13.582" />
    <path fill="#fff" d="m9.556 8.621 3.395 13.582-1.94.485L7.616 9.106z" />
    <path fill="#3B82F6" d="m34.796 15.059-19.777 7.923" />
    <path fill="#fff" d="m34.423 14.13.744 1.856-19.776 7.926-.744-1.856z" />
    <circle cy="23.102" cx="13.229" r="5.206" fill="#3B82F6" />
    <path
        d="M13.229 29.307c-3.422 0-6.206-2.784-6.206-6.206s2.784-6.205 6.206-6.205 6.206 2.784 6.206 6.206-2.784 6.205-6.206 6.205zm0-10.411c-2.319 0-4.206 1.887-4.206 4.206s1.887 4.205 4.206 4.205 4.206-1.886 4.206-4.205-1.887-4.206-4.206-4.206z"
        fill="#fff" />
    <circle cy="15.218" cx="33.989" r="2.502" fill="#3B82F6" />
    <path
        d="M33.989 18.72a3.506 3.506 0 0 1-3.502-3.502c0-1.93 1.57-3.502 3.502-3.502s3.502 1.571 3.502 3.503a3.506 3.506 0 0 1-3.502 3.501zm0-5.004c-.828 0-1.502.674-1.502 1.502s.674 1.502 1.502 1.502 1.502-.674 1.502-1.502-.674-1.502-1.502-1.502z"
        fill="#fff" />
    <circle cy="7.804" cx="8.404" r="2.502" fill="#3B82F6" />
    <path
        d="M8.404 4.302c-1.931 0-3.502 1.571-3.502 3.502s1.57 3.502 3.502 3.502 3.502-1.57 3.502-3.502-1.571-3.502-3.502-3.502zm0 5.004c-.828 0-1.502-.674-1.502-1.502s.674-1.502 1.502-1.502 1.502.674 1.502 1.502-.674 1.502-1.502 1.502z"
        fill="#fff" />
    <g fill="#fff">
        <path
            d="M28 38v-6h2v6h-2zM32.143 35.513c.499.255 1.264.51 2.054.51.85 0 1.3-.352 1.3-.887 0-.51-.39-.802-1.374-1.154-1.36-.474-2.247-1.227-2.247-2.418 0-1.398 1.166-2.467 3.099-2.467.922 0 1.603.194 2.09.414l-.414 1.494a3.89 3.89 0 0 0-1.713-.39c-.803 0-1.191.366-1.191.791 0 .522.461.753 1.519 1.154 1.445.535 2.127 1.288 2.127 2.443 0 1.373-1.058 2.54-3.306 2.54-.936 0-1.86-.244-2.321-.499l.375-1.532zM21 31.596c0 .888 1.066 2.14 1.509 2.938L24.462 38H26v-8h-2v4.118c0-.588-.47-.847-.797-1.426L21.789 30h-2.79v8h2v-6.404zm.255-.211-.001-.04.036-.011.023.051h-.058z" />
    </g>
    <circle cy="30" cx="29" r="1" fill="#fff" />
</svg>