<svg xmlns="http://www.w3.org/2000/svg" xml:space="preserve" height="42" width="42" y="168">
    <path fill="#3B82F6" d="M0 0h42v42H0z" />
    <path
        d="M31.683 28h-.46a3.21 3.21 0 0 1-3.205-3.206V10H27a1 1 0 0 1 0-2h9a1 1 0 0 1 0 2h-1.111v14.794A3.21 3.21 0 0 1 31.683 28zM30 10v14.794c0 .665.559 1.206 1.224 1.206h.46c.664 0 1.316-.541 1.316-1.206V10h-3z"
        fill="#fff" />
    <path stroke-linejoin="round"
        d="M27.354 33.443 20 16.972V6h2-11 2v10.972L6.202 33.443C5.207 35.165 6.4 37 8.39 37h17.335c1.989 0 2.624-1.835 1.629-3.557z"
        stroke="#fff" stroke-linecap="round" stroke-miterlimit="10" stroke-width="2" fill="#3B82F6" />
    <path
        d="M22.462 29H11.801l-1.417 2.967c-.62 1.067-.113 1.94 1.13 1.94h11.151c1.244 0 1.751-.873 1.13-1.94L22.464 29z"
        fill="#fff" />
</svg>