<?xml version="1.0" encoding="utf-8"?>
<svg viewBox="0 0 8759.2 8218.71"
    style="shape-rendering:geometricPrecision; text-rendering:geometricPrecision; image-rendering:optimizeQuality; fill-rule:evenodd; clip-rule:evenodd"
    xmlns="http://www.w3.org/2000/svg">
    <g id="Layer_x0020_1">
        <g id="_1343930325696">
            <path
                d="M1446.18 1410.78l4155.74 0c797.09,0 1446.24,649.11 1446.24,1446.19l0 3915.55c0,797.09 -649.16,1446.19 -1446.24,1446.19l-4155.74 0c-797.08,0 -1446.18,-649.11 -1446.18,-1446.19l0 -3915.55c0,-797.09 649.11,-1446.19 1446.18,-1446.19zm0 851.1l4155.74 0c327.39,0 595.14,267.76 595.14,595.09l0 3915.55c0,327.34 -267.76,595.09 -595.14,595.09l-4155.74 0c-327.33,0 -595.08,-267.76 -595.08,-595.09l0 -3915.55c0,-327.34 267.76,-595.09 595.08,-595.09z" />
            <path
                d="M3157.23 0l4155.74 0c797.08,0 1446.23,649.11 1446.23,1446.19l0 3915.55c0,739.38 -558.6,1351.38 -1275.73,1436.09l0 -866.07c244.94,-73.76 424.64,-301.86 424.64,-570.01l0 -3915.55c0,-327.34 -267.76,-595.09 -595.14,-595.09l-4155.74 0c-149,0 -285.69,55.49 -390.37,146.84l-984.55 0c189.22,-578.57 734.21,-997.94 1374.92,-997.94z" />
        </g>
    </g>
</svg>