<?xml version="1.0" encoding="utf-8"?>
<svg viewBox="0 0 21000 21000"
  style="shape-rendering:geometricPrecision; text-rendering:geometricPrecision; image-rendering:optimizeQuality; fill-rule:evenodd; clip-rule:evenodd"
  xmlns="http://www.w3.org/2000/svg">
  <g id="Layer_x0020_1" style=""
    transform="matrix(2.6860339641571045, 0, 0, 2.6860339641571045, -17691.357421875, -17715.380859375)">
    <path
      d="M10492.87 6800c17.26,0 34.45,0.24 51.58,0.67 17.14,0.43 34.27,1.1 51.28,1.95 17.08,0.85 34.03,1.95 50.98,3.23 16.95,1.28 33.72,2.75 50.55,4.45 16.82,1.71 33.53,3.6 50.24,5.74 16.7,2.07 33.29,4.51 49.81,7.01 16.59,2.5 33.05,5.24 49.45,8.17 16.41,2.92 32.75,6.03 49.03,9.39 16.28,3.29 32.44,6.89 48.59,10.61 16.16,3.72 32.14,7.62 48.11,11.7 15.98,4.15 31.83,8.42 47.68,12.93 15.8,4.45 31.53,9.15 47.2,14.02 15.61,4.88 31.22,9.94 46.7,15.19 15.49,5.24 30.86,10.67 46.16,16.28l0.06 0c15.31,5.61 30.49,11.34 45.61,17.31l0.06 0c15.12,5.98 30.12,12.14 45.06,18.48l0.06 0 44.51 19.51 0.06 0c14.76,6.65 29.39,13.48 43.97,20.49 14.57,7.01 29.02,14.2 43.41,21.58 14.39,7.38 28.66,14.94 42.8,22.62 14.15,7.69 28.17,15.55 42.14,23.54l0.06 0c13.9,7.99 27.74,16.22 41.52,24.57 13.72,8.36 27.32,16.89 40.85,25.55l0.06 0 40.19 26.46c13.29,8.97 26.46,18.17 39.51,27.44l0.06 0c12.99,9.33 25.97,18.72 38.78,28.29l0.06 0 38.11 29.27c12.56,9.88 25.06,19.94 37.38,30.12 12.37,10.19 24.57,20.49 36.64,30.98l0.06 0c12.01,10.42 24.03,21.03 35.85,31.83 11.83,10.73 23.54,21.64 35.13,32.68 11.58,11.03 23.04,22.25 34.32,33.53 11.28,11.28 22.44,22.75 33.48,34.33l0.06 0c11.04,11.53 21.89,23.29 32.62,35.12l0.06 0 31.77 35.86 0.06 0c10.49,12.07 20.79,24.32 30.97,36.7 10.19,12.32 20.25,24.82 30.13,37.38 9.87,12.56 19.63,25.3 29.2,38.11l0.06 0c9.64,12.8 19.03,25.79 28.3,38.84 9.26,13.05 18.41,26.28 27.37,39.57l0.06 0c8.97,13.29 17.75,26.65 26.41,40.18l0.06 0c8.72,13.54 17.13,27.2 25.48,40.92l0.06 0c8.36,13.72 16.47,27.56 24.52,41.52l0.06 0c8.05,13.96 15.85,28.05 23.53,42.19 7.69,14.15 15.19,28.48 22.56,42.81l0.06 0c7.38,14.39 14.52,28.84 21.53,43.41l0.06 0c7.01,14.57 13.84,29.21 20.49,43.96 6.7,14.76 13.11,29.64 19.45,44.58l0.06 0 18.41 45.12 0.06 0c5.98,15.12 11.65,30.36 17.26,45.67l0.06 0c5.61,15.36 10.98,30.73 16.22,46.21l0.06 0c5.24,15.49 10.24,31.04 15.12,46.71l0.06 0c4.88,15.67 9.45,31.4 13.97,47.19l0.06 0c4.51,15.8 8.78,31.71 12.86,47.69l0.06 0c4.15,15.97 7.93,32.01 11.65,48.1l0.06 0c3.78,16.16 7.2,32.32 10.55,48.6l0.06 0c3.35,16.28 6.4,32.62 9.33,49.02l0.06 0c2.93,16.41 5.61,32.93 8.11,49.45l0.06 0c2.5,16.53 4.82,33.11 6.95,49.82l0.06 0c2.14,16.71 3.97,33.41 5.67,50.24l0.06 0c1.71,16.83 3.11,33.6 4.39,50.55l0.06 0c1.29,16.89 2.32,33.96 3.18,50.97l0.06 0c0.85,17.02 1.46,34.15 1.89,51.28l0.06 0c0.42,17.14 0.61,34.33 0.61,51.59 0,17.25 -0.19,34.45 -0.61,51.58l-0.06 0c-0.49,17.13 -1.04,34.27 -1.89,51.28l-0.06 0c-0.86,17.07 -1.89,34.02 -3.18,50.97l-0.06 0c-1.28,16.96 -2.68,33.72 -4.39,50.55l-0.06 0c-1.7,16.83 -3.53,33.54 -5.67,50.24l-0.06 0c-2.13,16.71 -4.45,33.3 -6.95,49.82l-0.06 0c-2.56,16.52 -5.18,33.05 -8.11,49.45l-0.06 0c-2.93,16.4 -5.98,32.74 -9.33,49.02l-0.06 0c-3.29,16.28 -6.83,32.5 -10.55,48.6l-0.06 0c-3.72,16.16 -7.56,32.13 -11.65,48.11l-0.06 0c-4.14,15.97 -8.35,31.89 -12.86,47.68l-0.06 0c-4.46,15.79 -9.09,31.52 -13.97,47.19l-0.06 0c-4.88,15.67 -9.88,31.22 -15.12,46.71l-0.06 0c-5.24,15.49 -10.61,30.91 -16.22,46.22l-0.06 0c-5.61,15.3 -11.28,30.55 -17.26,45.67l-0.06 0 -18.41 45.12 -0.06 0c-6.34,14.94 -12.75,29.81 -19.45,44.57 -6.65,14.76 -13.48,29.39 -20.49,43.96l-0.06 0c-7.01,14.58 -14.15,29.03 -21.53,43.42l-0.06 0c-7.31,14.33 -14.87,28.59 -22.56,42.8 -7.68,14.15 -15.48,28.23 -23.53,42.19l-0.06 0c-8.05,13.91 -16.16,27.81 -24.52,41.53l-0.06 0c-8.35,13.78 -16.83,27.37 -25.48,40.91l-0.06 0c-8.66,13.48 -17.44,26.89 -26.41,40.18l-0.06 0c-8.96,13.36 -18.05,26.53 -27.37,39.58 -9.33,13.1 -18.66,26.03 -28.3,38.84l-0.06 0c-9.57,12.86 -19.33,25.54 -29.2,38.1 -9.88,12.57 -19.94,25.06 -30.13,37.38 -10.18,12.38 -20.48,24.64 -30.97,36.71l-0.06 0c-10.43,12.13 -21.04,24.08 -31.77,35.85l-0.06 0c-10.73,11.83 -21.58,23.54 -32.62,35.12l-0.06 0c-11.04,11.53 -22.14,22.99 -33.48,34.33 -11.34,11.34 -22.74,22.5 -34.32,33.54 -11.59,11.03 -23.3,21.95 -35.13,32.68 -11.82,10.79 -23.84,21.4 -35.85,31.83l-0.06 0 -36.64 30.97c-12.32,10.18 -24.82,20.24 -37.38,30.12l-38.11 29.27 -0.06 0c-12.81,9.57 -25.73,18.96 -38.78,28.29l-0.06 0c-12.99,9.27 -26.22,18.48 -39.51,27.44 -13.3,9.02 -26.71,17.8 -40.19,26.46l-0.06 0c-13.47,8.66 -27.13,17.2 -40.85,25.55 -13.78,8.35 -27.62,16.59 -41.52,24.57l-0.06 0c-13.97,8.05 -27.99,15.86 -42.14,23.54 -14.14,7.68 -28.41,15.24 -42.8,22.62 -14.39,7.38 -28.84,14.57 -43.41,21.59 -14.58,7.01 -29.21,13.78 -43.97,20.48l-0.06 0c-14.75,6.71 -29.57,13.17 -44.51,19.51l-0.06 0c-14.94,6.29 -29.94,12.5 -45.06,18.48l-0.06 0c-15.12,5.91 -30.3,11.71 -45.61,17.32l-0.06 0c-15.3,5.61 -30.67,11.03 -46.16,16.28 -15.48,5.24 -31.03,10.3 -46.7,15.18 -15.67,4.88 -31.4,9.51 -47.2,14.02 -15.79,4.52 -31.7,8.84 -47.68,12.93 -15.91,4.15 -32.01,7.99 -48.11,11.71 -16.15,3.78 -32.31,7.25 -48.59,10.61 -16.28,3.35 -32.62,6.46 -49.03,9.39 -16.4,2.92 -32.92,5.67 -49.45,8.17 -16.52,2.5 -33.11,4.87 -49.81,7.01 -16.71,2.13 -33.42,4.02 -50.24,5.73 -16.83,1.71 -33.6,3.17 -50.55,4.45 -16.89,1.28 -33.96,2.38 -50.98,3.23 -17.01,0.86 -34.14,1.53 -51.28,1.95 -17.13,0.43 -34.32,0.67 -51.58,0.67 -17.26,0 -34.45,-0.24 -51.58,-0.67 -17.14,-0.42 -34.27,-1.09 -51.28,-1.95 -17.08,-0.85 -34.03,-1.95 -50.98,-3.23 -16.95,-1.28 -33.72,-2.74 -50.54,-4.45 -16.83,-1.71 -33.54,-3.6 -50.25,-5.73 -16.7,-2.07 -33.29,-4.45 -49.81,-7.01 -16.53,-2.5 -33.05,-5.25 -49.45,-8.17 -16.4,-2.93 -32.75,-6.04 -49.03,-9.39 -16.28,-3.3 -32.5,-6.89 -48.59,-10.61 -16.1,-3.72 -32.14,-7.63 -48.11,-11.71 -15.98,-4.15 -31.89,-8.41 -47.68,-12.93 -15.79,-4.45 -31.53,-9.14 -47.2,-14.02 -15.67,-4.88 -31.22,-9.94 -46.7,-15.18 -15.55,-5.25 -30.86,-10.67 -46.16,-16.28l-0.06 0c-15.31,-5.61 -30.49,-11.34 -45.61,-17.32l-0.06 0c-15.12,-5.91 -30.12,-12.13 -45.06,-18.48l-0.06 0c-14.94,-6.28 -29.76,-12.86 -44.51,-19.51l-0.06 0c-14.76,-6.7 -29.39,-13.47 -43.97,-20.48 -14.57,-7.02 -29.02,-14.21 -43.41,-21.59 -14.39,-7.32 -28.66,-14.94 -42.8,-22.62l-42.14 -23.54 -0.06 0c-13.96,-7.98 -27.8,-16.22 -41.52,-24.57 -13.78,-8.35 -27.38,-16.89 -40.85,-25.55l-0.06 0c-13.54,-8.66 -26.89,-17.5 -40.19,-26.46 -13.29,-8.96 -26.46,-18.11 -39.51,-27.44l-0.06 0c-13.05,-9.27 -25.97,-18.72 -38.78,-28.29l-0.06 0 -38.11 -29.27c-12.56,-9.88 -25.06,-19.94 -37.37,-30.12 -12.38,-10.24 -24.58,-20.49 -36.65,-30.97l-0.06 0c-12.07,-10.43 -24.02,-21.1 -35.85,-31.83 -11.83,-10.73 -23.54,-21.65 -35.12,-32.68 -11.59,-11.04 -23.05,-22.26 -34.33,-33.54 -11.28,-11.28 -22.44,-22.74 -33.48,-34.33l-0.06 0c-11.03,-11.58 -21.89,-23.29 -32.62,-35.12l-0.06 0c-10.73,-11.83 -21.28,-23.78 -31.77,-35.85l-0.06 0c-10.43,-12.14 -20.79,-24.33 -30.97,-36.71 -10.19,-12.32 -20.25,-24.81 -30.12,-37.38 -9.88,-12.62 -19.64,-25.24 -29.21,-38.1l-0.06 0c-9.64,-12.81 -19.03,-25.8 -28.29,-38.84 -9.33,-13.11 -18.42,-26.28 -27.38,-39.58l-0.06 0c-8.97,-13.29 -17.75,-26.64 -26.4,-40.18l-0.07 0 -25.48 -40.91 -0.06 0c-8.3,-13.72 -16.53,-27.62 -24.52,-41.53l-0.06 0c-8.04,-13.96 -15.85,-28.04 -23.53,-42.19 -7.75,-14.15 -15.18,-28.41 -22.56,-42.8l-0.06 0c-7.38,-14.33 -14.52,-28.91 -21.53,-43.42l-0.06 0 -20.49 -43.96c-6.7,-14.76 -13.11,-29.63 -19.45,-44.57l-0.06 0 -18.41 -45.12 -0.06 0c-5.98,-15.12 -11.65,-30.37 -17.26,-45.67l-0.06 0c-5.61,-15.37 -10.97,-30.73 -16.22,-46.22l-0.06 0c-5.24,-15.49 -10.24,-31.04 -15.12,-46.71l-0.06 0c-4.88,-15.67 -9.45,-31.4 -13.96,-47.19l-0.07 0c-4.51,-15.79 -8.78,-31.71 -12.86,-47.68l-0.06 0c-4.15,-15.92 -7.93,-32.01 -11.65,-48.11l-0.06 0c-3.72,-16.16 -7.19,-32.32 -10.55,-48.6l-0.06 0c-3.35,-16.28 -6.4,-32.62 -9.33,-49.02l-0.06 0c-2.93,-16.4 -5.61,-32.93 -8.11,-49.45l-0.06 0c-2.5,-16.52 -4.82,-33.17 -6.95,-49.82l-0.06 0c-2.14,-16.7 -3.96,-33.41 -5.67,-50.24l-0.06 0c-1.71,-16.83 -3.11,-33.59 -4.39,-50.55l-0.06 0c-1.28,-16.89 -2.32,-33.96 -3.17,-50.97l-0.07 0c-0.85,-17.01 -1.46,-34.15 -1.89,-51.28l-0.06 0c-0.42,-17.13 -0.61,-34.33 -0.61,-51.58l-0.06 0 0.06 0c0,-17.26 0.19,-34.45 0.61,-51.59l0.06 0c0.43,-17.13 1.04,-34.26 1.89,-51.28l0.07 0c0.85,-17.07 1.89,-34.02 3.17,-50.97l0.06 0c1.28,-16.95 2.68,-33.72 4.39,-50.55l0.06 0c1.71,-16.83 3.53,-33.53 5.67,-50.24l0.06 0c2.13,-16.71 4.45,-33.29 6.95,-49.82l0.06 0c2.5,-16.52 5.18,-33.04 8.11,-49.45l0.06 0c2.93,-16.46 5.98,-32.74 9.33,-49.02l0.06 0c3.29,-16.28 6.83,-32.44 10.55,-48.6l0.06 0c3.72,-16.15 7.56,-32.13 11.65,-48.1l0.06 0c4.14,-15.98 8.35,-31.83 12.86,-47.69l0.07 0c4.45,-15.79 9.08,-31.52 13.96,-47.19l0.06 0c4.82,-15.61 9.88,-31.22 15.12,-46.71l0.06 0c5.25,-15.48 10.61,-30.91 16.22,-46.21l0.06 0c5.61,-15.31 11.28,-30.55 17.26,-45.67l0.06 0c5.97,-15.13 12.07,-30.19 18.41,-45.12l0.06 0c6.34,-15 12.81,-29.82 19.45,-44.58 6.71,-14.75 13.48,-29.39 20.49,-43.96l0.06 0c7.01,-14.57 14.15,-29.02 21.53,-43.41l0.06 0c7.31,-14.33 14.88,-28.66 22.56,-42.81l23.53 -42.19 0.06 0c8.05,-13.9 16.16,-27.8 24.52,-41.52l0.06 0c8.35,-13.78 16.83,-27.38 25.48,-40.92l0.07 0c8.65,-13.53 17.43,-26.89 26.4,-40.18l0.06 0 27.38 -39.57c9.26,-13.05 18.71,-26.04 28.29,-38.84l0.06 0 29.21 -38.11c9.87,-12.62 19.93,-25 30.12,-37.38 10.18,-12.31 20.48,-24.63 30.97,-36.7l0.06 0c10.43,-12.14 21.04,-24.03 31.77,-35.86l0.06 0c10.73,-11.83 21.59,-23.53 32.62,-35.12l0.06 0c11.04,-11.58 22.14,-22.99 33.48,-34.33 11.34,-11.34 22.74,-22.5 34.33,-33.53 11.58,-11.04 23.29,-21.95 35.12,-32.68l35.85 -31.83 0.06 0c12.07,-10.49 24.27,-20.79 36.65,-30.98 12.31,-10.18 24.81,-20.24 37.37,-30.12 12.62,-9.88 25.31,-19.69 38.11,-29.27l0.06 0c12.75,-9.63 25.73,-19.02 38.78,-28.29l0.06 0 39.51 -27.44 40.19 -26.46 0.06 0c13.47,-8.66 27.07,-17.19 40.85,-25.55 13.78,-8.29 27.56,-16.58 41.52,-24.57l0.06 0c13.91,-8.05 27.93,-15.85 42.14,-23.54 14.14,-7.68 28.41,-15.24 42.8,-22.62 14.39,-7.38 28.84,-14.57 43.41,-21.58 14.58,-7.01 29.21,-13.84 43.97,-20.49l0.06 0c14.75,-6.71 29.57,-13.17 44.51,-19.51l0.06 0c14.94,-6.28 29.94,-12.5 45.06,-18.48l0.06 0c15.12,-5.97 30.3,-11.7 45.61,-17.31l0.06 0c15.3,-5.61 30.67,-11.04 46.16,-16.28 15.48,-5.25 31.03,-10.31 46.7,-15.19 15.67,-4.87 31.41,-9.51 47.2,-14.02 15.79,-4.51 31.7,-8.84 47.68,-12.93 15.91,-4.14 32.01,-7.98 48.11,-11.7 16.16,-3.78 32.31,-7.26 48.59,-10.61 16.28,-3.36 32.63,-6.47 49.03,-9.39 16.4,-2.93 32.92,-5.67 49.45,-8.17 16.52,-2.5 33.17,-4.88 49.81,-7.01 16.71,-2.14 33.42,-4.03 50.25,-5.74 16.82,-1.7 33.59,-3.17 50.54,-4.45 16.89,-1.28 33.97,-2.38 50.98,-3.23 17.01,-0.85 34.14,-1.52 51.28,-1.95 17.13,-0.43 34.32,-0.67 51.58,-0.67zm1999.22 1999.28l0.06 0 -0.06 0zm1079.91 5078.59c34.57,191.27 201.94,336.39 403.28,336.39 226.4,0 409.87,-183.47 409.87,-409.87 0,-39.39 -5.61,-77.56 -15.98,-113.59l-0.06 -0.31 -0.06 -0.61 -0.06 -0.61 -0.06 -0.06 -0.06 -0.61 -0.06 -0.61 0 -0.06 -0.12 -0.61 -0.19 -1.22 -0.12 -0.67 0 -0.18 -0.12 -0.43 -0.25 -1.28 -0.12 -0.61 -0.06 -0.42 -0.06 -0.19 -0.12 -0.67 -0.31 -1.22 -0.12 -0.61 -0.06 -0.06 -0.12 -0.61 -0.31 -1.28 -0.18 -0.61 0 -0.18 -0.18 -0.49 -1.71 -5.67 -0.18 -0.61 -0.06 0c-8.97,-25.73 -18.05,-51.28 -27.44,-76.7l-0.06 0c-9.39,-25.43 -19.03,-50.74 -28.9,-75.92l-0.06 0c-9.88,-25.18 -19.94,-50.18 -30.31,-75.12l-0.06 0c-10.37,-24.88 -20.85,-49.63 -31.65,-74.26l-0.06 0c-21.58,-49.27 -44.08,-97.93 -67.49,-146.04l-0.07 0c-11.7,-24.02 -23.59,-47.98 -35.73,-71.7l-0.06 0c-12.13,-23.78 -24.45,-47.38 -37.01,-70.85l-0.06 0c-12.56,-23.48 -25.3,-46.77 -38.29,-69.94l-0.06 0c-12.99,-23.17 -26.22,-46.16 -39.64,-69.02l-0.06 0c-13.41,-22.87 -27.01,-45.55 -40.85,-68.11l-0.06 0c-13.84,-22.56 -27.86,-44.94 -42.07,-67.2l-0.06 0c-28.54,-44.45 -57.81,-88.35 -87.87,-131.52l-0.06 0c-15.06,-21.58 -30.24,-43.04 -45.73,-64.32l-0.06 0c-92.68,-127.68 -192.31,-249.39 -298.34,-364.75l-0.07 0c-35.36,-38.48 -71.4,-76.16 -108.1,-113.23 -18.36,-18.54 -36.95,-36.95 -55.61,-55l-0.06 0c-18.72,-18.17 -37.5,-36.16 -56.53,-53.9l-0.06 0c-57.13,-53.35 -115.79,-105 -175.66,-154.93l-0.06 0c-40,-33.3 -80.55,-65.8 -121.77,-97.5l0 -0.06c-20.55,-15.92 -41.4,-31.53 -62.25,-47.01l-0.06 0c-20.92,-15.49 -41.89,-30.73 -63.05,-45.8l-0.06 0c-21.22,-15.06 -42.5,-29.93 -63.96,-44.63l-0.06 0c-42.93,-29.33 -86.47,-57.86 -130.43,-85.54l-0.06 0c-22.01,-13.85 -44.21,-27.5 -66.46,-40.92 -22.32,-13.41 -44.69,-26.64 -67.26,-39.69l-0.06 0c-45.06,-26.04 -90.66,-51.16 -136.76,-75.49 -23.05,-12.13 -46.22,-24.14 -69.51,-35.85 -46.59,-23.48 -93.6,-45.98 -141.16,-67.68l-0.06 0c-23.78,-10.86 -47.56,-21.47 -71.52,-31.83l-0.06 0c-47.99,-20.79 -96.28,-40.67 -145.12,-59.63l-0.06 0c-24.39,-9.52 -48.84,-18.78 -73.47,-27.81l-0.06 0c-24.64,-9.02 -49.27,-17.74 -74.09,-26.34l-0.06 0c-24.82,-8.53 -49.69,-16.89 -74.69,-25l-0.06 0c-25,-8.11 -50.06,-16.03 -75.25,-23.59l-0.06 0c-25.18,-7.63 -50.42,-15 -75.79,-22.14l-0.06 0c-25.36,-7.13 -50.79,-13.96 -76.34,-20.67l-0.06 0c-25.55,-6.64 -51.16,-13.05 -76.89,-19.27 -25.73,-6.15 -51.52,-12.13 -77.37,-17.8l-0.06 0c-25.86,-5.67 -51.83,-11.1 -77.87,-16.28 -26.03,-5.18 -52.13,-10.12 -78.35,-14.82 -26.22,-4.69 -52.44,-9.14 -78.78,-13.29 -26.34,-4.21 -52.74,-8.11 -79.2,-11.83l-0.06 0c-26.47,-3.66 -53.05,-7.07 -79.64,-10.24 -26.58,-3.17 -53.23,-6.1 -79.99,-8.72 -26.71,-2.68 -53.6,-5.06 -80.43,-7.2 -26.83,-2.13 -53.78,-3.96 -80.73,-5.55 -26.95,-1.58 -54.02,-2.92 -81.09,-4.02 -27.08,-1.04 -54.21,-1.89 -81.4,-2.44 -27.2,-0.49 -54.39,-0.79 -81.71,-0.79 -27.25,0 -54.51,0.24 -81.7,0.79 -27.2,0.55 -54.33,1.34 -81.41,2.44 -27.07,1.1 -54.08,2.44 -81.09,4.02 -26.95,1.59 -53.9,3.42 -80.73,5.55 -26.89,2.14 -53.66,4.58 -80.42,7.2 -26.77,2.62 -53.42,5.55 -80,8.72 -26.65,3.17 -53.11,6.58 -79.64,10.24l-0.06 0c-26.46,3.66 -52.92,7.68 -79.2,11.83 -26.34,4.21 -52.62,8.6 -78.78,13.29 -26.22,4.7 -52.32,9.64 -78.35,14.82 -26.04,5.18 -52.01,10.55 -77.87,16.28l-0.06 0c-25.85,5.67 -51.64,11.65 -77.37,17.8 -25.73,6.16 -51.34,12.63 -76.89,19.27l-0.06 0c-25.55,6.65 -50.98,13.48 -76.34,20.67l-0.06 0c-25.37,7.14 -50.61,14.51 -75.79,22.14l-0.06 0c-25.19,7.62 -50.25,15.48 -75.25,23.59l-0.06 0c-25,8.11 -49.87,16.4 -74.69,25l-0.06 0c-24.82,8.54 -49.45,17.32 -74.08,26.34l-0.07 0c-24.63,9.03 -49.08,18.36 -73.47,27.81l-0.06 0c-48.84,18.96 -97.19,38.84 -145.12,59.63l-0.06 0c-23.96,10.36 -47.74,21.04 -71.52,31.83l-0.06 0c-47.5,21.7 -94.57,44.26 -141.16,67.68 -23.29,11.71 -46.46,23.66 -69.51,35.85 -46.09,24.33 -91.64,49.45 -136.76,75.49l-0.06 0c-22.56,12.98 -45,26.28 -67.26,39.69 -22.31,13.42 -44.51,27.01 -66.46,40.92l-0.06 0c-44.09,27.68 -87.5,56.21 -130.42,85.54l-0.07 0c-21.46,14.7 -42.8,29.57 -63.96,44.63l-0.06 0c-21.22,15.07 -42.19,30.31 -63.05,45.8l-0.06 0c-20.85,15.42 -41.7,31.15 -62.25,47.01l0 0.06c-41.22,31.7 -81.83,64.26 -121.77,97.5l-0.06 0c-60,49.93 -118.59,101.64 -175.66,154.93l-0.06 0c-19.03,17.81 -37.93,35.73 -56.53,53.9l-0.06 0c-18.72,18.17 -37.25,36.46 -55.61,55 -36.76,37.01 -72.74,74.88 -108.1,113.23l-0.06 0c-106.04,115.42 -205.67,237.13 -298.35,364.75l-0.06 0c-15.43,21.28 -30.67,42.74 -45.73,64.32l-0.06 0c-30.12,43.23 -59.39,87.07 -87.87,131.52l-0.06 0c-14.27,22.26 -28.23,44.64 -42.07,67.2l-0.06 0c-13.84,22.56 -27.44,45.24 -40.85,68.11l-0.06 0c-13.42,22.86 -26.59,45.91 -39.64,69.02l-0.06 0c-12.99,23.17 -25.73,46.46 -38.29,69.94l-0.06 0c-12.56,23.47 -24.88,47.07 -37.01,70.85l-0.06 0c-12.14,23.78 -24.03,47.62 -35.73,71.7l-0.06 0c-23.42,48.11 -45.86,96.83 -67.5,146.04l-0.06 0c-10.8,24.63 -21.28,49.38 -31.65,74.26l-0.06 0c-10.37,24.88 -20.43,49.94 -30.3,75.12l-0.07 0c-9.87,25.18 -19.51,50.49 -28.9,75.92l-0.06 0c-9.39,25.42 -18.53,51.03 -27.44,76.7l-0.06 0 -0.18 0.61 -1.71 5.67 -0.18 0.49 0 0.18 -0.18 0.61 -0.31 1.28 -0.12 0.61 -0.06 0.06 -0.12 0.61 -0.31 1.22 -0.12 0.67 -0.06 0.19 -0.06 0.42 -0.12 0.61 -0.25 1.28 -0.12 0.43 0 0.18 -0.12 0.67 -0.18 1.22 -0.13 0.61 0 0.06 -0.06 0.61 -0.06 0.61 -0.06 0.06 -0.06 0.61 -0.06 0.61 -0.06 0.31c-10.37,36.03 -15.98,74.2 -15.98,113.59 0,226.4 183.47,409.87 409.87,409.87 201.34,0 368.71,-145.12 403.28,-336.39 12.93,-72.2 31.34,-140.24 54.21,-205.61 529.92,-1191.43 1713,-1963.55 3024.92,-1965.25 1311.92,1.7 2495,773.82 3024.92,1965.25 22.87,65.37 41.28,133.41 54.21,205.61zm-2354.76 -6048.75c38.84,29.08 75.85,60.36 110.85,93.78l0.06 0 20.74 20.3 0.06 0 20.24 20.79 0.06 0c13.35,13.97 26.34,28.36 39.02,42.99l0.06 0 18.72 22.19 0.06 0c12.32,14.94 24.27,30.19 35.86,45.74l0.06 0 17.07 23.53 0.06 0c11.28,15.79 22.07,31.95 32.56,48.29l0.06 0 15.43 24.76 0.06 0c30.37,49.87 57.13,102.19 80.06,156.52l0.06 0c7.68,18.11 14.82,36.46 21.59,55l0.06 0c10.18,27.8 19.33,56.09 27.5,84.81l0.06 0c5.42,19.15 10.42,38.54 14.87,58.05l0.07 0 6.34 29.39 0.06 0 5.61 29.69 0.06 0 4.88 29.94 0.06 0 4.2 30.18 0.07 0 3.41 30.43 0.06 0 2.62 30.61 0.06 0 1.89 30.85 0.06 0c1.04,20.61 1.53,41.4 1.53,62.32 0,20.91 -0.49,41.64 -1.53,62.31l-0.06 0 -1.89 30.86 -0.06 0 -2.62 30.6 -0.06 0 -3.41 30.43 -0.07 0 -4.2 30.18 -0.06 0 -4.88 29.94 -0.06 0 -5.61 29.7 -0.06 0 -6.34 29.38 -0.07 0c-4.51,19.52 -9.39,38.84 -14.87,58.05l-0.06 0c-8.17,28.72 -17.32,57.01 -27.5,84.82l-0.06 0c-6.77,18.53 -13.97,36.89 -21.59,55l-0.06 0c-22.99,54.32 -49.69,106.58 -80.06,156.52l-0.06 0 -15.43 24.75 -0.06 0c-10.49,16.4 -21.34,32.5 -32.56,48.29l-0.06 0 -17.07 23.54 -0.06 0c-11.65,15.55 -23.54,30.79 -35.86,45.73l-0.06 0 -18.72 22.19 -0.06 0c-12.68,14.64 -25.67,28.97 -39.02,42.99l-0.06 0 -20.24 20.79 -0.06 0 -20.74 20.31 -0.06 0c-35.06,33.41 -72.07,64.69 -110.85,93.77l-0.06 0 -23.47 17.14 -23.91 16.58 -0.06 0 -24.33 16.04 -24.75 15.49 -0.06 0 -25.06 14.87 -0.06 0 -25.49 14.27 -0.06 0 -25.85 13.66 -0.07 0 -26.21 13.05 -0.06 0 -26.59 12.44 -0.06 0 -26.95 11.83 -0.06 0 -27.26 11.16 -0.06 0 -27.62 10.48 -27.93 9.88 -0.06 0 -28.23 9.15 -0.06 0 -28.53 8.53 -28.85 7.81 -0.06 0 -29.14 7.13 -29.39 6.4 -29.7 5.67 -29.93 4.94 -30.19 4.21 0 0.06c-10.12,1.34 -20.24,2.44 -30.42,3.42l0 0.06 -30.61 2.68 -30.85 1.95 -31.04 1.22 -0.06 0c-10.37,0.31 -20.79,0.37 -31.22,0.37 -10.49,0 -20.85,-0.06 -31.22,-0.37l-0.06 0 -31.03 -1.22 -30.86 -1.95 -30.61 -2.68 0 -0.06 -30.42 -3.42 0 -0.06 -30.19 -4.21 -29.93 -4.94 -29.7 -5.67 -29.39 -6.4 -29.14 -7.13 -0.06 0 -28.84 -7.81 -28.54 -8.53 -0.06 0 -28.23 -9.15 -0.06 0 -27.93 -9.88 -27.62 -10.48 -0.06 0 -27.26 -11.16 -0.06 0 -26.95 -11.83 -0.06 0 -26.58 -12.44 -0.07 0 -26.21 -13.05 -0.06 0 -25.86 -13.66 -0.06 0 -25.49 -14.27 -0.06 0 -25.06 -14.87 -0.06 0 -24.75 -15.49 -24.33 -16.04 -0.06 0 -23.91 -16.58 -23.47 -17.14 -0.06 0c-38.84,-29.02 -75.85,-60.36 -110.85,-93.77l-0.06 0 -20.73 -20.31 -0.07 0 -20.24 -20.79 -0.06 0c-13.35,-14.02 -26.34,-28.35 -39.02,-42.99l-0.06 0 -18.72 -22.19 -0.06 0c-12.32,-14.94 -24.27,-30.18 -35.86,-45.73l-0.06 0 -17.07 -23.54 -0.06 0c-11.22,-15.79 -22.07,-31.89 -32.56,-48.29l-0.06 0 -15.43 -24.75 -0.06 0c-30.3,-49.88 -57.13,-102.26 -80.06,-156.52l-0.06 0c-7.68,-18.11 -14.76,-36.47 -21.58,-55l-0.07 0c-10.18,-27.81 -19.39,-56.1 -27.49,-84.82l-0.07 0c-5.42,-19.14 -10.36,-38.47 -14.87,-58.05l-0.06 0 -6.35 -29.38 -0.06 0 -5.61 -29.7 -0.06 0 -4.88 -29.94 -0.06 0 -4.2 -30.18 -0.06 0 -3.42 -30.43 -0.06 0 -2.62 -30.6 -0.06 0 -1.89 -30.86 -0.06 0c-1.04,-20.61 -1.53,-41.4 -1.53,-62.31 0,-20.92 0.49,-41.65 1.53,-62.32l0.06 0 1.89 -30.85 0.06 0 2.62 -30.61 0.06 0 3.42 -30.43 0.06 0 4.2 -30.18 0.06 0 4.88 -29.94 0.06 0 5.61 -29.69 0.06 0 6.35 -29.39 0.06 0c4.51,-19.51 9.39,-38.9 14.87,-58.05l0.07 0c8.17,-28.72 17.31,-57.01 27.49,-84.81l0.07 0c6.76,-18.54 13.96,-36.95 21.58,-55l0.06 0c22.93,-54.33 49.76,-106.58 80.06,-156.52l0.06 0 15.43 -24.76 0.06 0c10.49,-16.4 21.34,-32.5 32.56,-48.29l0.06 0 17.07 -23.53 0.06 0c11.65,-15.55 23.54,-30.8 35.86,-45.74l0.06 0 18.72 -22.19 0.06 0c12.68,-14.63 25.67,-28.96 39.02,-42.99l0.06 0 20.24 -20.79 0.07 0 20.73 -20.3 0.06 0c35,-33.36 72.01,-64.76 110.85,-93.78l0.06 0 23.47 -17.13 23.91 -16.59 0.06 0 24.33 -16.04 24.75 -15.48 0.06 0 25.06 -14.88 0.06 0 25.49 -14.27 0.06 0 25.86 -13.66 0.06 0 26.21 -13.05 0.07 0 26.58 -12.43 0.06 0 26.95 -11.83 0.06 0 27.26 -11.16 0.06 0 27.62 -10.49 27.93 -9.88 0.06 0 28.23 -9.14 0.06 0 28.54 -8.54 28.84 -7.8 0.06 0 29.14 -7.14 29.39 -6.4 29.7 -5.67 29.93 -4.94 30.19 -4.21 0 -0.06 30.42 -3.41 0 -0.06 30.61 -2.69 30.86 -1.95 31.03 -1.22 0.06 0 31.22 -0.36c10.43,0 20.85,0.06 31.22,0.36l0.06 0 31.04 1.22 30.85 1.95 30.61 2.69 0 0.06 30.42 3.41 0 0.06 30.19 4.21 29.93 4.94 29.7 5.67 29.39 6.4 29.14 7.14 0.06 0 28.85 7.8 28.53 8.54 0.06 0 28.23 9.14 0.06 0 27.93 9.88 27.62 10.49 0.06 0 27.26 11.16 0.06 0 26.95 11.83 0.06 0 26.59 12.43 0.06 0 26.21 13.05 0.07 0 25.85 13.66 0.06 0 25.49 14.27 0.06 0 25.06 14.88 0.06 0 24.75 15.48 24.33 16.04 0.06 0 23.91 16.59 23.47 17.13 0.06 0z" />
  </g>
</svg>