<?xml version="1.0" encoding="utf-8"?>
<svg viewBox="0 0 8245.38 7899.97"
  style="shape-rendering:geometricPrecision; text-rendering:geometricPrecision; image-rendering:optimizeQuality; fill-rule:evenodd; clip-rule:evenodd"
  xmlns="http://www.w3.org/2000/svg">
  <g id="Layer_x0020_1">
    <path
      d="M7348.96 3785.71l-1398.53 -399.79 0 4065.88c0,232.09 -188.33,420.41 -420.42,420.41 -232.15,0 -420.47,-188.27 -420.47,-420.41l0 -4050.35 -1105.63 378.25 0 3672.1c0,247.49 -200.74,448.18 -448.24,448.18 -247.49,0 -448.18,-200.68 -448.18,-448.18l0 -3780.89c0,-322.78 198.01,-599.74 503.38,-704.19l194.35 -66.48 1569.45 -529.44c113.58,-22.28 226.86,-16.86 342.75,16.25l1988.23 568.21c323.27,92.4 539.73,379.46 539.73,715.64l0 3780.89c0,247.49 -200.68,448.18 -448.19,448.18 -247.49,0 -448.24,-200.68 -448.24,-448.18l0 -3666.09zm-5346.8 -2741.6l-1105.74 378.3 0 5996.88c0,247.49 -200.75,448.18 -448.25,448.18 -247.49,0 -448.18,-200.68 -448.18,-448.18l0 -6105.66c0,-322.72 198.01,-599.74 503.39,-704.2l1661.17 -568.33c148.39,-50.82 294.67,-54.42 445.44,-11.32l1988.22 568.21c323.28,92.4 539.73,379.46 539.73,715.64l0 569.5 -896.41 284.07 0 -738.77 -1398.59 -399.79c-271.78,-39.26 -367.41,-95.63 -840.79,15.46z" />
  </g>
</svg>