<?xml version="1.0" encoding="utf-8"?>
<svg viewBox="0 0 21000 21000"
  style="shape-rendering:geometricPrecision; text-rendering:geometricPrecision; image-rendering:optimizeQuality; fill-rule:evenodd; clip-rule:evenodd"
  xmlns="http://www.w3.org/2000/svg">
  <defs>
  </defs>
  <g id="Layer_x0020_1" style=""
    transform="matrix(2.3721330165863037, 0, 0, 2.3721330165863037, -14397.6162109375, -14417.181640625)">
    <path
      d="M10492.9 6149.56c1648.15,0 2984.56,1336.41 2984.56,2984.56 0,1258.49 -1740.97,3754.16 -2411.62,4884.19l-469.67 791.35c-20.85,35.09 -55.88,55.04 -96.75,55.04 -40.82,0 -75.84,-20.01 -96.64,-55.09l-469.11 -791.36c-693.36,-1169.6 -2425.39,-3565.71 -2425.39,-4884.13 0,-1648.04 1336.58,-2984.56 2984.62,-2984.56zm6.74 7315.65c632.82,-1033.94 2207.32,-3403.4 2207.32,-4331.09 0,-1222.84 -991.22,-2214.06 -2214.06,-2214.06 -1222.85,0 -2214.12,991.16 -2214.12,2214.06 0,982.28 1571.91,3275.95 2220.86,4331.09zm-6.74 -5648.05c742.16,0 1344.17,602.01 1344.17,1344.17 0,742.16 -602.01,1344.17 -1344.17,1344.17 -742.22,0 -1344.17,-601.95 -1344.17,-1344.17 0,-742.22 601.95,-1344.17 1344.17,-1344.17zm0 770.78c-317.03,0 -573.39,256.37 -573.39,573.39 0,316.97 256.31,573.67 573.39,573.67 316.91,0 573.33,-256.81 573.33,-573.67 0,-316.86 -256.48,-573.39 -573.33,-573.39z" />
  </g>
</svg>