<?xml version="1.0" encoding="utf-8"?>
<svg viewBox="0 0 21000 21000"
  style="shape-rendering:geometricPrecision; text-rendering:geometricPrecision; image-rendering:optimizeQuality; fill-rule:evenodd; clip-rule:evenodd"
  xmlns="http://www.w3.org/2000/svg">
  <g id="Layer_x0020_1" style=""
    transform="matrix(2.3874850273132324, 0, 0, 2.3874850273132324, -14558.697265625, -14578.486328125)">
    <g id="_1346461595616">
      <path
        d="M6148.48 7197.93c0,222.06 134.32,356.38 356.38,356.38 156.7,0 227.56,-100.27 309.7,-182.43 70.06,-70.09 176.94,-192.7 250.31,-241.83l0 5091.08c0,512.98 -13.13,909.8 385.76,1311.28 402.51,405.13 774.51,402.72 1294.3,402.72 1702.69,0 3405.37,0 5108.05,0 -49.13,73.37 -171.74,180.25 -241.82,250.31 -113.99,113.95 -182.44,151.5 -182.44,343.65 0,184.77 145.94,322.43 356.38,322.43 170.39,0 253.54,-126.26 343.65,-216.37 100.27,-100.27 188.73,-187.89 288.35,-288.64 112.68,-113.97 54.56,-24.17 204.8,-202.48 32.48,-38.55 38.82,-37.09 70.06,-82.68 85.97,-125.46 132.58,-256.84 145.3,-388.54l0 -150.95c-19.29,-203.1 -115.01,-401.83 -267.17,-575.37l-432.86 -415.65c-126.13,-126.14 -172.93,-224.86 -386.07,-224.86 -184.77,0 -322.44,145.94 -322.44,356.38 0,163.98 113.11,240.38 199.4,326.68 72.21,72.2 209.02,192.93 258.8,267.27l-5363 0.4c-489.67,2.05 -780.27,-277.11 -780.81,-763.48l0.58 -5397.12c247.14,165.5 323.03,458.2 627.9,458.2 184.76,0 322.43,-145.95 322.43,-356.38 0,-170.39 -126.26,-253.54 -216.37,-343.65 -394.58,-394.58 -581.79,-691.54 -1107.31,-691.54 -145.47,0 -330.03,78.57 -421.44,138.58l-575.57 544.48c-91.91,91.92 -224.85,178.82 -224.85,352.13z" />
      <path
        d="M8422.5 9505.89l0 2155.22c0,412.7 669.69,452.63 679.61,-16.17l-0.82 -1341.47c-0.34,-145.77 -5.68,-424.24 254.57,-424.24 244.06,0 255.21,248.43 254.61,407.24l-0.85 1341.5c2.75,479.39 670.89,467.03 680.4,16.97l-0.81 -1341.47c-0.34,-145.77 -5.68,-424.24 254.57,-424.24 244.06,0 255.21,248.43 254.61,407.24l-0.85 1341.5c2.84,495.95 679.6,442.58 679.6,33.14l0 -1578.23c0,-140.8 -42.78,-246.06 -81.92,-342.34 -116.55,-286.71 -467.91,-540.12 -766.59,-540.12 -227.14,0 -370.76,7.53 -567.17,128.61 -42.89,26.44 -74.11,49.91 -111.64,75.03 -239.15,-160.14 -516.33,-259.76 -811.75,-183.8 -191.79,49.32 -100.67,58.97 -222.99,-2.82 -207.38,-104.77 -492.58,32.88 -492.58,288.45z" />
      <path
        d="M11884.43 8725.26c0,114.24 -7.37,189.82 96.68,293.63 173.8,173.41 477.26,111.58 565.86,-123.23 30.22,-80.09 -4.14,-137.98 63.23,-192.77 15.68,-12.76 385.78,-136.4 -83.28,444.24 -161.57,200.02 -257.8,288.07 -443.09,473.31 -115.76,115.72 -199.4,171.5 -199.4,360.62 0,173.44 148.99,322.43 322.44,322.43l950.33 0c314.39,0 435.71,-414.49 199.38,-606.67 -89.56,-72.83 -163.67,-72.14 -318.17,-72.14 35.12,-66.37 80.29,-112.64 128.51,-176.96 300.6,-401 452.53,-782.67 75.04,-1214.52 -450.04,-514.87 -1357.53,-143.96 -1357.53,492.06z" />
    </g>
  </g>
</svg>