<svg clip-rule="evenodd" fill-rule="evenodd" image-rendering="optimizeQuality" shape-rendering="geometricPrecision"
    text-rendering="geometricPrecision" viewBox="0 0 13696 14142" xml:space="preserve"
    xmlns="http://www.w3.org/2000/svg">
    <path class="fil0"
        d="m7838 13152 227-1125 99-8c296-24 689 190 728 505l10 83-71 45c-222 140-513 263-752 381l-241 119zm4802-9221 716 393a656 656 0 0 1 260 888l-3539 6445a658 658 0 0 1-717 324l-172-39 3865-7039c3-5 0-13-5-16l-717-393c-6-3-13 0-17 5l-3864 7039-124-124a656 656 0 0 1-113-779l3539-6444a656 656 0 0 1 887-260zM7453 2559h2961c680 0 1286 441 1501 1084l33 97-86 56a841 841 0 0 0-280 301l-307 560v-515c-1-473-388-861-861-861H7498c9-238-6-480-45-721zM3201 7488v5071c0 473 388 861 861 861h6352c473 0 861-388 861-861V9878l721-1315v3996c0 871-711 1583-1582 1583H4062c-871 0-1583-712-1583-1583V7430c75 14 150 25 224 33 171 20 337 39 498 25zm1358 1486h4345l-337 614H4559a307 307 0 0 1 0-614zm0-1412h5120l-336 614H4559a307 307 0 0 1 0-614zm1424-1412h3933a307 307 0 0 1 0 614H4672c487-118 929-331 1311-614zm1158-1412h2775a307 307 0 0 1 0 613H6776c141-192 263-398 365-613zM3406 6540c0 59 2 150-8 198-58 273-435 195-632 173-333-38-703-147-1004-300-22-1-40-8-56-23-40-35-144-83-195-113a3147 3147 0 0 1-580-453l-14-15a3146 3146 0 0 1-453-579c-30-52-78-155-114-195a89 89 0 0 1-23-56A3110 3110 0 0 1 27 4172c-22-197-100-574 174-631 47-10 138-9 197-9l18-2c441-19 885-2 1327-2 446 0 891 2 1337 0h18c86 0 173 12 236 77 65 62 76 149 76 235v19c-2 445 0 891 0 1336 0 442 18 886-1 1328-1 6-1 12-3 17zm132-3137c-63-2-159 4-198 4H1044c-146 0-288 26-377-124-82-136-4-605 29-767 43-205 108-404 190-598 148-347 362-681 629-949 416-418 917-729 1493-872a3176 3176 0 0 1 2018 155c473 193 1032 630 1317 1055 108 161 211 316 294 491 973 2054-476 4441-2749 4513-160 5-319-15-349-209l-1-14-1-2673 1-12zm-634 632H511c1 33 6 68 10 95 15 49 22 103 29 153 43 187 117 442 200 614 135 281 311 540 531 761 220 220 480 396 760 530 172 83 427 158 614 201 51 7 104 13 153 29 27 4 62 8 96 9V4035zm1133 1766c609-41 1279-383 1683-827 477-524 744-1177 719-1891-13-383-94-744-267-1087l-4-9C5545 722 4021 154 2726 722a2685 2685 0 0 0-1320 1263c-103 213-254 644-265 919l2575 1c175 1 311 48 322 247 22 381 0 789 0 1174 0 490-22 984-1 1475z" />
</svg>