<svg xmlns="http://www.w3.org/2000/svg" xml:space="preserve" viewBox="0 0 22091 12020"
    shape-rendering="geometricPrecision" text-rendering="geometricPrecision" image-rendering="optimizeQuality"
    fill-rule="evenodd" clip-rule="evenodd">
    <defs />
    <g id="Layer_x0020_1">
        <g id="_2267271750992">
            <path class="fil0"
                d="M16305 9883c-120-921 557-1623 1348-1733 910-126 1624 570 1726 1345 120 913-560 1628-1341 1733-921 125-1632-569-1733-1345zm-10095-44a1549 1549 0 0 1 1390-1693c905-89 1608 589 1692 1386 95 900-589 1625-1386 1701a1553 1553 0 0 1-1696-1394zm-3877 0a1550 1550 0 0 1 1381-1692c913-100 1618 595 1702 1392 94 895-584 1608-1375 1693a1551 1551 0 0 1-1708-1393zm13217-559c-46 56-201 27-270 27-596 0-1592 24-2093-3-27-269-3-2738-6-3328 0-34-2-78-1-111l31-115c-5-111 90-200 162-245 112-70 217-59 361-59h2569c0 765-6 1532 0 2296 1 115 20 185-38 256-189 236-366 289-587 848-57 144-79 303-128 435zm-13970 19-800 4-5-2332 11636-2-1 2334h-2360c-189-541-152-690-598-1187a2230 2230 0 0 0-1131-678c-900-219-1712 76-2305 712-79 84-136 179-210 251-483-794-1540-1183-2491-965a2343 2343 0 0 0-1330 900c-224 310-321 560-405 963zm19615-3518 18 56c-334 42-933 7-1296 7-158 0-1213 33-1254-25-305 11-452-158-456-461l2-2654h2304c81 57 91 277 112 379 83 397 564 2542 570 2698zm-6820-3425c258 0 490 14 732-56l-6 2368h-748V2357l22-1zm2703-1182c159-30 1722-10 2022-10 358 0 577 1 834 182 160 112 398 334 430 585h-1683c-657 0-1248-139-1248 447v3002c0 816 580 1227 1336 1225 611-1 2014-26 2537 4v380c-160 6-777-90-763 398 14 477 575 372 763 379l-5 1536-1119 1c-78 0-86-199-148-376a2322 2322 0 0 0-2600-1523c-121 21-258 73-356 84V1174zM1814 828c474-178 750 581 239 733a388 388 0 0 1-485-242c-63-204 7-401 246-491zm12807 0c496-184 708 595 240 734a390 390 0 0 1-486-243c-65-206 13-404 246-491zM3041 811l32-15c51-14-14-2 39-8 16-2 70 1 90 1 2560 25 5226 0 7794 0 872 0 1782-25 2648 2 0 75 11 26-22 61-15 128-42 209-44 356-2 123 6 247-5 370H3047c37-345 104-389-6-767zM0 6488v2963c3 6 7 8 8 17 2 11 13 29 16 35l56 145c308 600 978 399 1506 438 238 1547 1977 2336 3239 1728 218-105 399-211 552-352 138-128 328-287 423-479 71 51 55 51 109 123l96 125c151 193 542 469 775 571 1523 667 3076-350 3264-1721l5501 1c44 109 75 296 117 412 140 395 358 680 645 945 1298 1196 3579 418 3827-1358l1351 1c597 1 596-198 596-751 0-497 38-2982-39-3337l-362-1691c-156-752-324-1490-480-2236-87-419-172-685-391-955a1893 1893 0 0 0-778-592c-396-159-765-128-1218-128l-2032-1c-230 1-378 66-447 239-99 251 30 3522-38 4038l-410-1c-32-426-4-2264-4-2840 0-447 89-887-139-1236-499-763-1263-569-2274-569H2031C1074 25 588 821 834 1567c104 317 395 635 716 717 0 507-28 1098 2 1595 15 262 154 360 408 388 541 60 449 843-76 775-320-42-323-325-347-449-90-463-834-455-756 209 107 911 1200 1337 1891 755 268-226 515-609 402-1152-64-306-247-551-482-711-67-45-210-101-264-146l-3-1185 11253-7v2311c-478 32-688 184-912 440-259 295-255 617-255 1090l-11903-1c-393 0-374 94-508 292z" />
            <path class="fil0"
                d="M12552 6153c37 201 189 285 421 286h715c382 0 1067 111 977-426-16-98-70-170-143-225-143-107-755-65-997-65-334 0-1074-124-973 430zM12584 787c31-32 21 13 21-56-800-26-1641-2-2446-2-2373 0-4836 23-7201 0-18 0-69-2-83-1-49 6 11-5-36 7l-30 14h9757c41 32 10-15 18 38z" />
        </g>
    </g>
</svg>