<svg xmlns="http://www.w3.org/2000/svg" xml:space="preserve" viewBox="0 0 10885 12509"
    shape-rendering="geometricPrecision" text-rendering="geometricPrecision" image-rendering="optimizeQuality"
    fill-rule="evenodd" fill="currentColor">
    <path class="fil0"
        d="M2080 5003h5375c157 0 286 118 305 269-232 76-446 194-631 344H2080a307 307 0 0 1 0-613zM7953 0H1583C712 0 0 712 0 1583v8417c0 870 712 1582 1583 1582h1275c32-46 68-89 108-130l592-592H1601a864 864 0 0 1-861-860V7318l-18-32V2064l18 33v-514c0-474 388-861 861-861h6334c473 0 860 387 860 861v514l18-33v3156c264 58 509 169 722 321V1583C9535 712 8823 0 7953 0zM5433 11582h2520c870 0 1582-712 1582-1582V8792a1983 1983 0 0 1-740 324v884c0 473-387 860-860 860H6154l-721 722zm1102-5167H2080a307 307 0 0 0 0 613h4313c15-216 64-422 142-613zM5101 3590h2354a307 307 0 0 1 0 614H5101a307 307 0 0 1 0-614z" />
    <circle class="fil0" cx="3123.2" cy="2387" r="556.9" />
    <path class="fil0"
        d="M3165 3097c563 0 1027 541 1092 1239H2073c65-698 529-1239 1092-1239zm5217 1566a2503 2503 0 1 1 0 5006 2503 2503 0 0 1 0-5006zm0 510a1993 1993 0 1 1-1 3987 1993 1993 0 0 1 1-3987z" />
    <rect class="fil0" transform="scale(-5.73811 5.73811) rotate(-45 1286 2307)" width="142.2" height="883" rx="71.1"
        ry="71.1" />
</svg>