<svg xmlns="http://www.w3.org/2000/svg" xml:space="preserve" viewBox="0 0 14824 13859"
    shape-rendering="geometricPrecision" text-rendering="geometricPrecision" image-rendering="optimizeQuality"
    fill-rule="evenodd" clip-rule="evenodd">
    <defs />
    <g id="Layer_x0020_1">
        <g id="_2267572014256">
            <path class="fil0"
                d="M8297 1219c-128 0-462-492-543-600-128-170-373-500-651-500-216 0-321 21-523 77-239 67-482 171-702 281-83 41-163 75-241 122-156 96-290 163-454 275-121 82-235 177-338 279-43 43-78 82-115 131-177 238-156 394-92 665 23 99 51 196 76 288 55 203 129 424 129 641 0 71-372 18-381 17l-1 763c0 49 9 59 9 101 39 0 93 11 129 15 186 21 368 15 543-46 154-53 210-136 291-217 85-83 173-176 239-277 213-321 50-405-29-767-28-132-166-593-157-697 6-66 215-203 269-239 318-213 664-407 1040-502 51-12 98-19 147-30l333 387 65 79 201 239c76 76 128 140 216 215 249 212 521 191 823 142 224-36 291-25 394-232 18-37 33-63 54-99l280-507c36-60 214-368 267-368 244 0 619 120 846 196 123 41 256 92 373 143 91 40 175 79 259 130 46 28 71 38 71 90l-78 785c-27 213-63 519 75 700 41 55 94 105 145 151 102 89 403 362 527 362 320 0 944-288 1270-288 90 0 442 652 525 821 24 48 46 102 68 152 45 103 91 215 123 326 45 158 36 157-141 300l-64 54-32 28-374 304c-22 17-40 31-60 49-144 128-291 245-351 437-23 73-42 215-39 297 3 105 22 405 48 509 44 171 240 219 377 301 95 56 198 101 292 156 163 94 335 185 481 306 135 112-119 788-171 917-116 291-142 338-270 594-48 97-57 70-158 70-175 0-338-22-496-46-247-36-613-114-850 21-127 73-181 148-277 248-20 21-37 34-54 56-93 116-245 258-245 424 0 273 280 868 280 1245 0 84-455 332-579 395-122 61-247 133-373 185-138 58-278 110-423 144-58 14-65 17-101-19-139-141-260-300-383-455l-60-75-126-154c-62-78-133-148-210-214-127-108-266-129-480-129-228 0-599 40-734 205-14 18-18 30-28 49-122 239-358 594-506 840-21 34-40 68-61 100-27-13-384-68-450-83-297-70-745-171-999-330-117-74-109-124-109-256 0-207 36-439 61-642 22-183 70-473-1-628-56-121-161-189-248-277-88-88-187-175-293-241-46-29-189-100-255-100-38 0-137 31-171 41l-171 49c-111 33-224 70-336 96 0 81 9 129 9 212v652c116-3 343-102 592-102 85 0 15 471 9 542-28 329-59 338-59 762 0 248 288 477 475 591 27 16 50 26 77 42 49 30 102 57 158 79 265 108 405 166 698 250 253 73 508 143 770 178 191 26 494 79 675-14 74-38 103-72 154-134 41-49 79-116 113-175l330-533c59-90 166-285 241-335 84 20 138 105 193 163l98 121 63 81 186 254c129 173 386 490 671 490 317 0 589-104 862-213l237-101c246-100 657-344 866-497l140-114c73-69 145-130 211-213 271-345 162-589 35-1053-49-179-116-383-116-577 0-73 337-13 357-10 181 26 585 69 752 69 152 0 292-29 397-76 209-93 362-285 469-480 29-53 58-101 81-156 13-33 23-50 36-83 152-379 405-1198 405-1609 0-207-50-374-139-496-135-187-338-300-531-417-69-42-134-77-204-119l-201-120c-62-38-138-84-178-144 23-26 44-48 70-74 135-136 436-359 600-492 96-77 181-162 268-248 26-26 43-49 67-77 187-220 121-512 50-764-19-67-35-124-59-187-68-175-137-351-220-517-42-85-77-167-126-247-17-28-26-52-44-82l-184-307c-17-27-33-46-49-69-167-235-453-610-754-610-232 0-436 67-650 120-184 46-401 126-594 126-32 0-16-6-51-9-28-119 2-263 19-378 13-85 18-198 29-285 15-118 37-313 37-429-1-151 28-283-37-421-61-129-215-218-331-295a3571 3571 0 0 0-611-320A4100 4100 0 0 0 9338 1c-168-1-292 98-364 194-202 266-354 590-543 870-16 24-115 154-134 154z" />
            <path class="fil0"
                d="M1228 7459c204 0 1145 9 1232-4 88-13 979-15 1028 4v694c0 244 8 459 8 702v703c0 244 9 465 9 703v1059c0 125 8 220 8 346v1067c0 125 9 232 9 347l-2269 9c0-1886-25-3746-25-5630zM0 5308v-127c4-20 14-38 35-74l427-666c38-62 123-163 123-233 0-210-19-1348-6-1436 60-415 359-665 784-664h965c163 0 306-8 474-8h483c189 0 271 17 401 81a720 720 0 0 1 259 223c183 253 137 523 136 830-1 81 8 147 8 237v720c0 145-17 113 47 198l102 135 205 277c73 97 140 189 207 276 28 35 33 35 32 95l8 229c-2 685 9 1362 9 2041h-441v1210c0 141 9 256 9 390v1210c0 132 8 250 8 390v804c0 275 9 522 9 796v804c0 270 8 521 8 796-1271 0-2526 17-3801 17 0-2130-34-4264-34-6392H17c-24-103-9-347-9-474L0 5308zm3657-271c25 17 177 227 207 268 58 77 56 52 56 181l8 1194H2743c-135 0-249 8-389 8h-788c-272 0-519 9-787 9 0-49-9-65-9-119v-923l2261-8c85 0 142-9 220-9 183 1 356-16 444-241 76-192-24-309-38-360zm-25-34c18 13 16 4 25 34-22-15-17-4-25-34zm0 0c-31-20-52-47-90-70-135-84-259-57-452-57h-669c-230 0-432 9-660 9h-669c8-28 67-110 85-144h677c231 0 441-8 677-8l856-1c65 1 54 6 101 68l108 147c15 19 30 33 36 56zM1346 3827v-949l1964-8c0 54 9 71 9 127v965l-1964 9c0-60-9-83-9-144zM8593 7933a1836 1836 0 0 1-967-278c-109-68-146-105-233-182-76-67-132-127-195-211a1651 1651 0 0 1-315-921c0-349 21-522 144-830 35-88 87-191 139-267 29-44 52-81 82-121 92-122 187-217 308-310 475-359 1203-397 1734-168 582 252 1013 893 1013 1518 0 427-97 730-322 1050a1736 1736 0 0 1-1388 720zM6011 6104v212c0 440 171 862 350 1190 37 69 80 128 122 191 240 358 619 662 1007 848 263 127 682 243 993 243 319 0 437-1 755-83a2666 2666 0 0 0 862-408c307-231 468-401 693-747l111-210a2548 2548 0 0 0 256-1131c-4-118-6-222-22-330a2635 2635 0 0 0-739-1496 2498 2498 0 0 0-1237-677c-711-168-1444-9-2018 373l-428 360c-148 177-203 222-338 449-188 313-367 793-367 1216z" />
        </g>
    </g>
</svg>