<svg xmlns="http://www.w3.org/2000/svg" xml:space="preserve" height="42" width="42"><path fill="#0891b2" d="M0 0h42v42H0z"/><g fill="#fff"><path d="M15 5h11v19H15z"/><path d="M26.392 25h-11L14 23.542v-19L15.392 4h11l.608.542v19L26.392 25zM16 23h9V6h-9v17z"/>d=&quot;m26.392 25h-11l-1.392-1.458v-19l1.392-0.542h11l0.608 0.542v19l-0.608 1.458zm-10.392-2h9v-17h-9v17z&quot; /&gt;</g><path fill="#fff" d="M27.392 19.542h-12l-1 1v3l.102.439 5.634 11.532 1.774.045 6.366-11.533.124-.483v-3zM15 38H4v-5h11v5z"/><g fill="#fff"><path d="M27 34h9v3h-9z"/><path d="M37 38H26v-5h11v5z"/></g><path fill="#0891b2" d="m28 23.928-15-6.52v-8.52l15 6.52z"/><path d="M27.798 24.845 12.7 18.325l-.7-.917v-8.52l1.595-.917 14.902 6.52.503.917v8.52l-1.202.917zM14 16.752l13 5.65v-6.339l-13-5.65v6.34z" fill="#fff"/><path fill="#0891b2" d="M28 11.062 13.815 5H28z"/><path d="m27.788 11.975-14.479-6.29L13.815 4h14.577l.608.542v6.52l-1.212.912zM18.5 6 27 9.519V6h-8.5z" fill="#fff"/><path fill="#0891b2" d="M0 0h42v42H0z"/><g fill="#fff"><path d="M15 5h11v19H15z"/><path d="M26.392 25h-11L14 23.542v-19L15.392 4h11l.608.542v19L26.392 25zM16 23h9V6h-9v17z"/>d=&quot;m26.392 25h-11l-1.392-1.458v-19l1.392-0.542h11l0.608 0.542v19l-0.608 1.458zm-10.392-2h9v-17h-9v17z&quot; /&gt;</g><path fill="#fff" d="M27.392 19.542h-12l-1 1v3l.102.439 5.634 11.532 1.774.045 6.366-11.533.124-.483v-3zM15 38H4v-5h11v5z"/><g fill="#fff"><path d="M27 34h9v3h-9z"/><path d="M37 38H26v-5h11v5z"/></g><path fill="#0891b2" d="m28 23.928-15-6.52v-8.52l15 6.52z"/><path d="M27.798 24.845 12.7 18.325l-.7-.917v-8.52l1.595-.917 14.902 6.52.503.917v8.52l-1.202.917zM14 16.752l13 5.65v-6.339l-13-5.65v6.34z" fill="#fff"/><path fill="#0891b2" d="M28 11.062 13.815 5H28z"/><path d="m27.788 11.975-14.479-6.29L13.815 4h14.577l.608.542v6.52l-1.212.912zM18.5 6 27 9.519V6h-8.5z" fill="#fff"/></svg>