<svg xmlns="http://www.w3.org/2000/svg" xml:space="preserve" height="42" width="42" y="84"><path fill="#0891b2" d="M0 0h42v42H0z"/><path d="M8.694 37.297c-1.821 0-3.303-1.482-3.303-3.303s1.482-3.303 3.303-3.303 3.303 1.481 3.303 3.303-1.481 3.303-3.303 3.303z" fill="#fff"/><g fill="#fff"><path d="M17.159 30.691c-1.821 0-3.303 1.481-3.303 3.303s1.482 3.303 3.303 3.303 3.303-1.482 3.303-3.303-1.482-3.303-3.303-3.303zM25.624 30.691c-1.821 0-3.303 1.481-3.303 3.303s1.482 3.303 3.303 3.303 3.303-1.482 3.303-3.303-1.482-3.303-3.303-3.303zM34.089 30.691c-1.821 0-3.303 1.481-3.303 3.303s1.482 3.303 3.303 3.303 3.303-1.482 3.303-3.303-1.482-3.303-3.303-3.303z"/></g><path fill="#0891b2" d="M5 29h31"/><path fill="#fff" d="M5 28h31v2H5z"/><g fill="#fff"><path d="M10.929 27.045c-1.99-2.173-4.552-7.613-.005-12.651 1.442-1.597 2.12-3.208 2.016-4.79-.153-2.315-1.904-3.831-1.922-3.846l1.296-1.523c.099.084 2.414 2.088 2.621 5.239.141 2.14-.709 4.246-2.527 6.26-4.478 4.962-.189 9.76-.004 9.96l-1.475 1.35z"/><path d="M15.649 27.045c-1.99-2.173-4.551-7.613-.005-12.651 1.442-1.598 2.12-3.208 2.016-4.789-.152-2.316-1.904-3.832-1.922-3.847l1.296-1.523c.099.084 2.414 2.088 2.622 5.24.14 2.139-.71 4.245-2.527 6.259-4.453 4.934-.187 9.76-.003 9.963l-1.477 1.348z"/><path d="M20.237 27.045c-1.99-2.173-4.552-7.613-.005-12.651 1.442-1.597 2.12-3.208 2.016-4.79-.153-2.315-1.904-3.831-1.922-3.846l1.296-1.523c.099.084 2.414 2.088 2.621 5.239.141 2.14-.709 4.246-2.527 6.26-4.453 4.934-.186 9.76-.003 9.963l-1.477 1.348zM32.827 19.121l-1.948-.451c.35-1.512 1.134-2.95 2.33-4.277a9.776 9.776 0 0 0 1.164-1.56l1.722 1.017c-.376.636-.848 1.27-1.402 1.884-.966 1.069-1.594 2.209-1.867 3.386zM37.201 10.599l-1.99-.196c.268-2.726-1.89-4.63-1.912-4.648l1.3-1.52c.122.103 2.975 2.58 2.602 6.364zM26.317 21.119c-.45-2.691.388-5.305 2.422-7.559l1.484 1.34c-1.633 1.81-2.283 3.792-1.933 5.89l-1.972.329z"/><path d="M24.557 27.045c-.121-.132-2.964-3.292-2.494-7.449l1.988.225c-.37 3.263 1.958 5.848 1.982 5.873l-1.475 1.351z"/></g></svg>