<svg xmlns="http://www.w3.org/2000/svg" xml:space="preserve" height="42" width="42" y="336"><path fill="#0891b2" d="M0 0h42v42H0z"/><g fill="#0891b2"><path d="M12 36h25M22 30l-9.083 5.882V23.539l9.083-.24z"/><path d="M11.095 21H24v4H11.095zM5 5v8.663l3.936 6.273h16.93l3.05-6.273V5z"/></g><path d="m16.119 35 6.424-4.16A.999.999 0 0 0 23 30v-4h2v-5h1.492L30 13.893V4H4v9.95L8.383 21h1.65v5H12v11h25v-2H16.12zM23 24H12v-3h11v3zM9.489 19 6 13.375V6h12v7h7V6h3v7.433L25.24 19h-2.865L25 15.05h-6.95V19H9.49zM14 26h7v3.456l-7 4.587V26z" fill="#fff"/></svg>