<svg xmlns="http://www.w3.org/2000/svg" xml:space="preserve" height="42" width="42" y="42"><path fill="#0891b2" d="M0 0h42v42H0z"/><g fill="#0891b2"><path d="M11.949 32.932 37 32.881M5 36h32M15.125 32.881H6v-6.765z"/></g><circle cy="16.935" cx="19.798" r="12.22" fill="#0891b2"/><g fill="#fff"><path d="M5 35h32v2H5zM11.951 34h25.051l-.004-2H15.523L5 24.198v9.752h6.951V34zm-.004-2v.001L7 32.051v-3.83l5.097 3.78h-.15z"/><path d="M19.798 30.155c7.29 0 13.221-5.93 13.221-13.22s-5.931-13.22-13.221-13.22-13.22 5.93-13.22 13.22 5.93 13.22 13.22 13.22zm0-24.44c6.187 0 11.221 5.033 11.221 11.22s-5.034 11.22-11.221 11.22c-6.186 0-11.22-5.033-11.22-11.22s5.033-11.22 11.22-11.22z"/><circle cy="16.935" cx="19.798" r="2.444"/></g></svg>