<svg xmlns="http://www.w3.org/2000/svg" xml:space="preserve" height="42" width="42" y="126"><path fill="#0891b2" d="M0 .073h42V42H0z"/><g fill="#fff"><path d="M4 4h3v18H4zM16.626 19.301c-.857 0-1.51-.243-1.954-.717-.439-.48-.659-1.492-.659-2.584h-3.28l-.025.302c-.04 1.877.523 3.276 1.693 4.197 1.17.916 2.576 1.377 4.226 1.377 1.668 0 3.01-.425 4.02-1.276 1.01-.849 1.517-2.022 1.517-3.508 0-1.44-.432-2.587-1.296-3.436-.863-.852-2.136-1.555-3.812-2.113-.986-.452-1.682-.872-2.087-1.25-.41-.384-.607-.869-.607-1.456 0-.634.178-1.166.535-1.592.36-.422.857-.638 1.504-.638.747 0 1.32.232 1.722.699.4.462.6.794.6 1.694h3.292c.035-1.607-.462-2.607-1.49-3.562-1.026-.955-2.382-1.434-4.068-1.434-1.59 0-2.9.45-3.927 1.342-1.026.898-1.538 2.053-1.538 3.477 0 1.433.45 2.548 1.347 3.343.901.799 2.24 1.508 4.02 2.134.916.382 1.55.78 1.902 1.179.355.4.53.946.53 1.641 0 .657-.18 1.19-.544 1.587-.358.393-.9.593-1.622.593M26.71 5.738C25.572 6.895 25 8.492 25 10.532v4.84c0 2.047.576 3.641 1.72 4.786 1.143 1.145 2.673 1.718 4.591 1.718 1.92 0 2.807-.572 3.959-1.718 1.154-1.144 1.73-2.739 1.73-4.785v-4.84c0-2.04-.58-3.637-1.736-4.795C34.107 4.584 33.216 4 31.3 4s-3.446.581-4.59 1.739M34 10.492v4.88c0 1.287-.254 2.253-.761 2.899-.5.644-1.244.966-2.222.966s-1.719-.322-2.213-.967c-.498-.645-.747-1.61-.747-2.899v-4.879c0-1.27.249-2.227.742-2.868.491-.642 1.229-.96 2.208-.96.969 0 1.709.321 2.224.966.512.646.77 1.602.77 2.862M9.044 35.393c-.334.47-.76.707-1.28.707-.388 0-.736-.034-1.043-.102a4.766 4.766 0 0 1-.949-.315l-.406 1.775c.363.17.755.306 1.177.399.42.098.826.144 1.22.144 1.219 0 2.233-.425 3.032-1.277C11.6 35.876 12 34.732 12 33.296v-3.41c0-1.515-.366-2.7-1.097-3.557-.733-.857-1.672-1.285-2.82-1.285-1.127 0-2.05.42-2.766 1.253-.721.837-1.082 1.881-1.082 3.125 0 1.29.298 2.32.89 3.083.6.763 1.422 1.147 2.464 1.147.381 0 .738-.094 1.076-.271s.63-.444.88-.796v.857c0 .831-.164 1.481-.5 1.951m-.124-3.786c-.259.162-.55.245-.878.245-.444 0-.784-.224-1.018-.672-.235-.445-.349-1.032-.349-1.759 0-.68.126-1.263.39-1.744.26-.481.604-.723 1.027-.723.442 0 .792.213 1.057.64.265.427.396 1.048.396 1.862v1.505c-.16.27-.37.485-.625.647M15.296 26.318c-.709.852-1.063 2.01-1.063 3.482v3.452c0 1.481.354 2.645 1.069 3.485.715.845 1.654 1.264 2.832 1.264 1.16 0 2.093-.419 2.805-1.263.708-.84 1.06-2.004 1.06-3.485v-3.45c0-1.473-.354-2.632-1.066-3.483-.715-.85-1.654-1.277-2.816-1.277-1.173.001-2.112.426-2.822 1.275m3.872 1.33c.258.46.383 1.106.383 1.937v3.863c0 .85-.125 1.501-.375 1.961-.25.457-.599.688-1.042.688-.463 0-.818-.231-1.073-.688-.253-.46-.38-1.111-.38-1.96v-3.864c0-.831.123-1.478.376-1.938.25-.463.603-.692 1.059-.692.446 0 .794.23 1.053.693M25.183 26.318c-.707.852-1.065 2.01-1.065 3.482v3.452c0 1.481.358 2.645 1.07 3.485.713.845 1.656 1.264 2.833 1.264 1.162 0 2.093-.419 2.804-1.263.708-.84 1.062-2.004 1.062-3.485v-3.451c0-1.472-.356-2.631-1.064-3.483-.715-.85-1.657-1.276-2.818-1.276-1.174 0-2.115.426-2.823 1.275m3.87 1.329c.26.46.387 1.106.387 1.937v3.864c0 .85-.128 1.5-.377 1.96-.253.458-.6.69-1.044.69-.46 0-.816-.232-1.073-.69-.254-.46-.381-1.11-.381-1.96v-3.864c0-.83.125-1.477.378-1.937.254-.463.604-.692 1.057-.692.447 0 .795.23 1.052.693M33.118 25.455v1.878L35 27.327V38h2V24.971z"/></g></svg>