<?xml version="1.0" encoding="utf-8"?>
<!-- Generator: Adobe Illustrator 22.1.0, SVG Export Plug-In . SVG Version: 6.00 Build 0)  -->
<svg version="1.1" id="ар_1" xmlns="http://www.w3.org/2000/svg" xmlns:xlink="http://www.w3.org/1999/xlink" x="0px" y="0px"
	 viewBox="0 0 566.9 566.9" style="enable-background:new 0 0 566.9 566.9;" xml:space="preserve">
<style type="text/css">
	.st0{fill:#FFFFFF;}
</style>
<g>
	<path class="st0" d="M227.9,268.4c0-18,14.2-30.1,32.1-30.1c4.3,0,10.2,0.7,14.2,2.4v7.8c-3.7-2.1-9.6-3.5-13.8-3.5
		c-13.9,0-24.4,10-24.4,23.6c0,14,11.2,23.6,24,23.6c4.1,0,11.1-1.5,14.2-3.3v7.7c-4.2,1.8-10.9,2.4-14.2,2.4
		C241.5,298.8,227.9,286.8,227.9,268.4z"/>
	<path class="st0" d="M296.6,267.7h-0.3v30.1h-7.7v-58.6h7.7v27.7h0.3l27.4-27.7h10l-28.2,27.6l31.1,31h-10.2L296.6,267.7z"/>
	<path class="st0" d="M387,246h-22.6v17.4c0,15.4-0.9,35.4-15.6,35.4c-2.6,0-4.9-0.3-6.7-1l0.1-6.6c1.7,0.6,3.6,0.8,5.2,0.8
		c8.7,0,9.2-18.4,9.2-31.6v-21.2h38.1v58.6H387V246z"/>
	<path class="st0" d="M409.9,268.5c0-17,11.9-30.3,30.1-30.3c18.7,0,30.2,13.3,30.2,30.3c0,17.8-11.6,30.3-30.2,30.3
		C422,298.8,409.9,286.3,409.9,268.5z M418,268.5c0,11.9,8.1,23.6,22,23.6c14.5,0,22.1-11.6,22.1-23.6c0-12.1-7.7-23.6-22.1-23.6
		C425.9,245,418,256.4,418,268.5z"/>
</g>
<g>
	<path class="st0" d="M245.1,361.1v20.3h-16v-58.6h21.5c15.2,0,23.4,6,23.4,19.3c0,11.9-8.6,19.1-23,19.1H245.1z M245.1,333.9v16
		h3.5c5.3,0,9.6-2,9.6-8.1c0-6-4.4-7.9-9.6-7.9H245.1z"/>
	<path class="st0" d="M281.4,322.7h39.9V334h-24v11.9H319v11.3h-21.7v12.9h24.9v11.3h-40.8V322.7z"/>
	<path class="st0" d="M361.6,382.4c-16.1,0-33.8-8.2-33.8-30.1c0-20.3,14.5-30.5,33.7-30.5c5.8,0,11.4,1.2,17.1,2.9v13
		c-4.9-2.6-10.8-4.2-15.9-4.2c-11,0-18.3,7.9-18.3,18.8c0,11.5,8,18.4,19.3,18.4c5,0,10.7-1.6,15-3.2v12.7c-2.2,0.6-4.5,1.2-7.3,1.6
		C368.6,382,365.4,382.4,361.6,382.4z"/>
	<path class="st0" d="M393.4,381.4l9.8-16.4l-22.1-42.3h17.8l12.1,27.5h0.2l11.7-27.5h17.6l-30.1,58.6H393.4z"/>
	<path class="st0" d="M462,361.1v20.3h-16v-58.6h21.5c15.2,0,23.4,6,23.4,19.3c0,11.9-8.6,19.1-23,19.1H462z M461.9,333.9v16h3.5
		c5.3,0,9.6-2,9.6-8.1c0-6-4.4-7.9-9.6-7.9H461.9z"/>
	<path class="st0" d="M529.9,382.4c-16.1,0-33.8-8.2-33.8-30.1c0-20.3,14.5-30.5,33.7-30.5c5.8,0,11.4,1.2,17.1,2.9v13
		c-4.9-2.6-10.8-4.2-15.9-4.2c-11,0-18.3,7.9-18.3,18.8c0,11.5,8,18.4,19.3,18.4c5,0,10.7-1.6,15-3.2v12.7c-2.2,0.6-4.5,1.2-7.3,1.6
		C536.9,382,533.7,382.4,529.9,382.4z"/>
</g>
<g>
	
		<rect x="64.7" y="216.8" transform="matrix(0.8637 -0.504 0.504 0.8637 -146.6288 76.1137)" class="st0" width="5.4" height="184.8"/>
</g>
<g>
	<polygon class="st0" points="32.7,230.7 125.8,390.3 130.5,387.6 37.4,228 	"/>
</g>
<g>
	
		<rect x="93" y="216.8" transform="matrix(0.8637 -0.504 0.504 0.8637 -142.7703 90.3821)" class="st0" width="5.4" height="184.8"/>
</g>
<g>
	
		<rect x="107.2" y="216.8" transform="matrix(0.8637 -0.504 0.504 0.8637 -140.8412 97.5159)" class="st0" width="5.4" height="184.8"/>
</g>
<g>
	<polygon class="st0" points="75.1,230.7 168.3,390.3 172.9,387.6 79.8,228 	"/>
</g>
<g>
	
		<rect x="135.5" y="216.8" transform="matrix(0.8637 -0.504 0.504 0.8637 -136.9829 111.7837)" class="st0" width="5.4" height="184.8"/>
</g>
<g>
	
		<rect x="149.6" y="216.8" transform="matrix(0.8637 -0.504 0.504 0.8637 -135.0537 118.9175)" class="st0" width="5.4" height="184.8"/>
</g>
<g>
	<polygon class="st0" points="37.9,373 37.9,279.2 22.9,253.7 22.9,387.9 101.3,387.9 92.6,373 	"/>
</g>
<g>
	<polygon class="st0" points="162.5,247.4 162.5,305.3 177.4,330.9 177.4,232.5 120,232.5 128.8,247.4 	"/>
</g>
</svg>
