<svg xmlns="http://www.w3.org/2000/svg" xml:space="preserve" id="svg110" fill-rule="evenodd" clip-rule="evenodd" image-rendering="optimizeQuality" shape-rendering="geometricPrecision" text-rendering="geometricPrecision" version="1.1" viewBox="0 0 2176.585 1482.733"><defs id="defs60"><font id="h" fill-rule="nonzero" font-weight="700" horiz-adv-x="740" horiz-origin-x="0" horiz-origin-y="0" vert-adv-y="1024" vert-origin-x="512" vert-origin-y="768"><font-face id="font-face1" font-family="AvantGardeC"><font-face-src><font-face-name name="AvantGardeGothicC-Demi"/></font-face-src></font-face><glyph id="glyph1" d="M31.995 247.996C31.995 83 128-17.996 280.002-17.996c152 0 247.996 100.996 247.996 265.992v238.999c0 165.006-95.995 266.003-247.996 266.003S31.995 652.002 31.995 486.995V247.996zm363.002 0c0-128.994-78.993-140.001-114.995-140.001-36.002 0-115.005 11.007-115.005 140.001v238.999c0 129.004 79.003 140.001 115.005 140.001 36.002 0 114.995-10.996 114.995-140.001V247.996z" horiz-adv-x="560" unicode="0"/><glyph id="glyph2" d="M306.995 0h133.001v740.003H287L50 434.996l105.003-79.997 151.991 199V0z" horiz-adv-x="560" unicode="1"/><glyph id="glyph3" d="M42.003 0h477.998v126h-292l140.995 126C479.003 349.997 520 425.002 520 513.001c0 147.997-104.998 240-242.997 240-174.007 0-248.006-137.003-243.007-268.998h133c-4.999 66.002 29.008 142.998 114 142.998 73.999 0 106.004-56.004 106.004-111.998 0-73.003-47.998-113.004-90-152L42.002 126.001v-126z" horiz-adv-x="560" unicode="2"/><glyph id="glyph4" d="M202 560.002C201.004 605.998 237.003 627 270.004 627c38 0 61.999-31 61.999-70.005 0-74.995-73.003-76.996-96.006-76.996h-19v-126H240c26 0 145 0 145-126 0-66.998-49.004-120.005-118.003-120.005-74.994 0-112.994 56.004-118.999 111.003h-133C23.004 83.995 126.001-18.005 266.001-18.005c139.005 0 252 97.001 252 245.009 0 89.99-38.997 164.995-116.998 197 54.003 41.994 64 97.998 64 131.995 0 121.996-89.005 197-197 197C147.998 753 68.005 672.002 69 560.004h133z" horiz-adv-x="560" unicode="3"/><glyph id="glyph5" d="m45 351.998 119-33.001c25.004 37.004 64.996 53.007 99.003 53.007 74.994 0 123.998-56.005 123.998-129.007 0-83-51.006-135.002-123.002-135.002-66.002 0-109.001 49.003-119 111.003H12C25.006 90 118.005-18.004 265.006-18.004c148.993 0 254.996 112.008 254.996 259 0 137.003-92.003 257.008-237.002 257.008-47.998 0-78.002-14.001-92.003-21.002L214 613.995h235l7 126.01H114.998L45 352z" horiz-adv-x="560" unicode="5"/><glyph id="glyph6" d="M287.001 740.003 76.001 417c-41.997-64-53.998-124.997-53.998-171.002C22.003 93.997 128-17.996 278.997-17.996c155.004 0 255.006 116 255.006 263 0 152.996-100.002 245.998-218 245.998-13.005 0-24.001-1.004-37.006-3.003l165.006 252.004H287zm-8.998-369.007c76.995 0 123-58.999 123-129.999 0-76-47-133.001-123-133.001s-122.999 57-122.999 133.001c0 71 45.994 129.999 123 129.999z" horiz-adv-x="560" unicode="6"/><glyph id="glyph7" d="M84.999 0h148.005L500 614.001v126.002H65.005V614.001h295.999L84.999 0z" horiz-adv-x="560" unicode="7"/><glyph id="glyph8" d="M53.998 553.998V0h133v406.997L335.005 0h109.994l148.005 406.997V0h133v553.998H533L389.995 159.995 247.002 553.998H53.997z" horiz-adv-x="780" unicode="м"/></font><font id="g" fill-rule="nonzero" font-weight="400" horiz-adv-x="739" horiz-origin-x="0" horiz-origin-y="0" vert-adv-y="1024" vert-origin-x="512" vert-origin-y="768"><font-face id="font-face8" font-family="AvantGardeC"><font-face-src><font-face-name name="AvantGardeGothicC-Book"/></font-face-src></font-face><glyph id="glyph9" d="M76.001 0h74.004v739.988H76.001V0z" horiz-adv-x="226" unicode="І"/><glyph id="glyph10" d="M11.011 0h79.996l106.986 248.003h344.003L649.006 0h79.997L411.99 739.988h-81.993L11.012 0zm215.994 314.99L370.993 654l142.016-339.01H227.006z" horiz-adv-x="739" unicode="А"/><glyph id="glyph11" d="M74.004 739.988V0h244.008c138.994 0 234.994 88.01 234.994 216.993 0 37.002-8.015 217.018-234.994 217.018H148.008V673h327.999v66.988H74.005zm74.004-372.99H319.01c128.982 0 159.992-93.004 159.992-150.005 0-57-31.01-150.005-159.992-150.005H148.008v300.01z" horiz-adv-x="579" unicode="Б"/><glyph id="glyph12" d="M74.004 0H276.99C519 0 543.993 151.004 543.993 209.003c0 77-37.002 160.99-128.982 188.006 39 23.994 88.984 67.986 88.984 147.982 0 186.008-168.007 194.996-245.007 194.996H74.004V-.001zm74.004 66.988v289.025H276.99c73.005 0 192-13.009 192-148.008 0-129.007-122.99-141.017-192-141.017H148.008zm0 356.012v250h110.98c54.005 0 171.003-2.996 171.003-125.013C429.99 434.01 321.008 423 258.988 423h-110.98z" horiz-adv-x="574" unicode="В"/><glyph id="glyph13" d="M74.004 0h74.004v673h305.004v66.988H74.005V0z" horiz-adv-x="460" unicode="Г"/><glyph id="glyph14" d="M429.991 739.988h-79.996l-275.99-673H6.99v-206.98h74.004V.001h617.997v-139.993h74.004v206.98h-66.988l-276.017 673zM154 66.988l235.993 578.024L626.012 66.988H154z" horiz-adv-x="780" unicode="Д"/><glyph id="glyph15" d="M74.004 0H480v66.988H148.008V339.01H468.99v66.987H148.008V673H480v66.988H74.004V0z" horiz-adv-x="536" unicode="Е"/><glyph id="glyph16" d="M423 739.988V0h74.004v739.988H423zm-33.007-353.99L115 739.988H26.99l273.02-346.999L4.995 0H97l292.994 385.998zm140.018 0L823.005 0h92.005L619.993 392.989l272.995 346.999h-87.985L530.01 385.998z" horiz-adv-x="920" unicode="Ж"/><glyph id="glyph17" d="M63.992 546.989h74.004c-1.998 71.008 42.993 139.02 139.992 139.02 106.012 0 138.021-77 138.021-131.005 0-58-28.013-138.994-152.002-138.994H219.99v-67.013h44.018c122.99 0 172.001-71.008 172.001-150.005 0-80.995-55.003-144.986-165.01-144.986-119.994 0-170.004 85.988-167.008 172H30.01C21.996 104.99 102.991-13.007 270.997-13.007c164.012 0 239.015 106.012 239.015 213.997 0 88.01-46.015 164.012-132.003 186.008 58 25.99 111.98 77 111.98 167.008 0 96.999-59.998 198.99-212.999 198.99-150.978 0-215.994-102.99-212.998-206.006z" horiz-adv-x="539" unicode="З"/><glyph id="glyph18" d="M74.004 739.988V0h77.998l440.003 634.999V0h74.004v739.988h-77.998L148.008 104.989v634.999H74.004z" horiz-adv-x="739" unicode="И"/><glyph id="glyph19" d="M74.004 739.988V0h77.998l440.003 634.999V0h74.004v739.988h-77.998L148.008 104.989v634.999H74.004zm115.999 180.016c6.99-77 66.988-139.993 179.99-139.993 113.004 0 173 62.993 180.017 139.993h-72.007c-3.994-39.998-34.006-77.999-108.01-77.999s-103.99 38.001-107.984 77.999h-72.006z" horiz-adv-x="739" unicode="Й"/><glyph id="glyph20" d="M74.004 739.988V0h74.004v739.988H74.004zm124.987-360.98L492.01.001h91.98L287 386.998l285.006 352.991h-88.011L198.99 379.009z" horiz-adv-x="599" unicode="К"/><glyph id="glyph21" d="M385.998 739.988h-70.01L8.989 0h81.02l260.985 647.009L610.007 0h80.995L385.998 739.988z" horiz-adv-x="699" unicode="Л"/><glyph id="glyph22" d="M74.004 0h74.004v656.996L428.992 0h62.02l280.984 656.996V0H846v739.988H731.998L460.002 110.007 188.006 739.988H74.004V0z" horiz-adv-x="919" unicode="М"/><glyph id="glyph23" d="M74.004 0h74.004v346.999h386.997V0h74.004v739.988h-74.004V414.012H148.008v325.976H74.004V0z" horiz-adv-x="683" unicode="Н"/><glyph id="glyph24" d="M434.011 752.996c-220.014 0-392.016-162.988-392.016-384.999 0-221.986 173.999-381.005 392.016-381.005 219.989 0 391.99 165.011 391.99 386.997 0 220.014-171.003 379.007-391.99 379.007zm.999-698.991c-178.02 0-319.011 127.983-319.011 313.992 0 184.011 137.995 318.012 319.01 318.012 177.994 0 316.989-128.009 316.989-312.02C751.998 189.005 615 54.005 435.01 54.005z" horiz-adv-x="868" unicode="О"/><glyph id="glyph25" d="M74.004 0h74.004v673h384V0h74.005v739.988H74.003V0z" horiz-adv-x="679" unicode="П"/><glyph id="glyph26" d="M74.004 0h74.004v296.989H308c187.007 0 254.993 111.006 254.993 221.013 0 83.99-38 221.986-254.993 221.986H74.004V0zm74.004 673h160.99c132.003 0 179.99-76.001 179.99-154.998 0-77-47.987-154-179.99-154h-160.99V673z" horiz-adv-x="592" unicode="Р"/><glyph id="glyph27" d="M767.003 551.009c-61.994 127.983-187.007 201.987-341.007 201.987-213.997 0-384.001-160.99-384.001-381.005 0-225.981 173-384.999 389.993-384.999 145.012 0 269 77 338.011 206.007h-88.01c-59.998-96-159.993-138.994-250-138.994-175.997 0-315.99 135.998-315.99 317.986 0 169.005 125.013 314.017 310.996 314.017 158.993 0 231.998-104.015 251.997-134.999h88.011z" horiz-adv-x="812" unicode="С"/><glyph id="glyph28" d="M175.996 0H250v673h169.005v66.988H6.99V673h169.005V0z" horiz-adv-x="425" unicode="Т"/><glyph id="glyph29" d="M615.001 739.988h-77L329.996 272.995 89.01 739.988H4.994l285.005-546.989L203.012 0h77l334.99 739.988z" horiz-adv-x="619" unicode="У"/><glyph id="glyph30" d="M606.012 739.988h-74.004v-673h-384v673H74.002V0H635v-139.993h74.004v206.98h-102.99v673z" horiz-adv-x="719" unicode="Ц"/><glyph id="glyph31" d="M545.99 739.988h-73.978V364.002H296.989c-25.991 0-91.98 1.997-128.982 33.007-40.997 33.98-44.019 87.986-44.019 122.99v219.99H50.01v-219.99c0-58 3.995-124.987 65.99-174.997 52.007-41.995 126.01-48.013 180.988-48.013h175.023V0h73.978v739.988z" horiz-adv-x="619" unicode="Ч"/><glyph id="glyph32" d="M74.004 739.988V0h811.994v739.988h-74.004v-673H517.003v673h-74.004v-673H148.01v673H74.003z" horiz-adv-x="960" unicode="Ш"/><glyph id="glyph33" d="M74.004 739.988V0H915.01v-139.993h73.978v206.98H886v673h-74.005v-673h-294.99v673H443v-673H148.01v673H74.004z" horiz-adv-x="1000" unicode="Щ"/><glyph id="glyph34" d="M74.004 739.988V0h244.008c139.993 0 234.994 88.01 234.994 216.993 0 132.003-85.015 217.018-234.994 217.018H148.008v305.977H74.004zm74.004-372.99H319.01c128.982 0 159.992-93.004 159.992-150.005 0-57-31.01-150.005-159.992-150.005H148.008v300.01z" horiz-adv-x="579" unicode="Ь"/><glyph id="glyph35" d="M619.994 546.989H550.01v-94.976h-2.023C482 553.007 380.007 559.997 332.992 559.997c-195.995 0-290.997-153-290.997-283.007 0-169.978 129.007-289.998 292.994-289.998 119.021 0 182.014 68.012 212.998 115.001h2.023V.001h69.984v546.99zm-287.002-53.98c124.014 0 217.018-99.021 217.018-223.01 0-119.993-95.001-215.993-215.021-215.993-116.998 0-218.99 92.005-218.99 216.993 0 127.01 97.998 222.012 216.993 222.012z" horiz-adv-x="683" unicode="а"/><glyph id="glyph36" d="m595.002 739.988-234.994-15.979C228.005 714.996 41.996 673 41.996 343.004c0-255.992 132.003-356.012 293.993-356.012 168.007 0 282.009 116 282.009 277.015 0 169.005-115.001 276.99-279.986 276.99-34.006 0-168.007-8.988-227.005-140.99h-1.997C121.992 635.998 289 652.002 360.009 656.996l234.994 16.005v66.987zM335.988 474.009c120.019 0 208.005-83.017 208.005-210.002 0-116.998-82.992-210.002-208.005-210.002-119.994 0-207.979 91.007-207.979 210.002s86.987 210.002 207.979 210.002z" horiz-adv-x="659" unicode="б"/><glyph id="glyph37" d="M62.993 546.989V0h202.013c115.999 0 175.996 73.005 175.996 157.994 0 64.017-37.002 115.001-93.004 130.006 43.992 19 73.005 60.996 73.005 113.003 0 65.989-34.006 145.985-162.015 145.985H62.993zm74.004-66.988h116.998c17.003 0 93.004 1 93.004-78.997 0-53.006-35.005-87.012-93.004-87.012H136.997v166.009zm0-232.997H256.99c103.016 0 110.007-67.013 110.007-90.008 0-38-22.995-90.008-110.007-90.008H136.997v180.016z" horiz-adv-x="480" unicode="в"/><glyph id="glyph38" d="M360.009 547.005h-80.002L66.993 66.993H9.988v-206.996h74.01V.001h471.996v-140.004h74.01V66.993h-57.005l-212.99 480.012zM146.995 66.993l173.013 397.014L492.996 66.993H146.995z" horiz-adv-x="639" unicode="д"/><glyph id="glyph39" d="M608.01 247.004c.999 140.991-74.004 312.993-281.01 312.993-186.008 0-285.005-152.002-285.005-287.002C41.995 109.009 166.009-13.008 327-13.008c123.989 0 224.009 73.005 268.002 191.002h-77C483.996 102.991 412.988 54.005 327 54.005c-115 0-198.99 83.99-208.005 192.999H608.01zm-489.015 66.988C136.997 418.007 222.011 493.01 327 493.01c95.001 0 179.991-68.012 200.988-179.018H118.995z" horiz-adv-x="650" unicode="е"/><glyph id="glyph40" d="M62.993 546.989V0h74.004l326 442V0h74.005v546.989h-74.004l-326.001-442v442H62.993z" horiz-adv-x="599" unicode="и"/><glyph id="glyph41" d="M136.997 0v546.989H62.993V0h74.004zm263.008 0h95.001L270.998 283.007l210.001 263.981h-87.012L179.99 276.989 400.004-.001z" horiz-adv-x="500" unicode="к"/><glyph id="glyph42" d="M319.011 546.989h-77L7.991 0h80.02l192 453.011L472.012 0h79.997L319.01 546.989z" horiz-adv-x="559" unicode="л"/><glyph id="glyph43" d="M62.993 546.989V0h74.004v464.995L327.999 0h63.991l191.002 464.995V0h74.004v546.989H542.994L360.007 99.995 176.995 546.989H62.993z" horiz-adv-x="719" unicode="м"/><glyph id="glyph44" d="M62.998 547.005V0h74.01v246.997h306V0h73.983v547.005h-73.984V313.99h-306v233.015h-74.01z" horiz-adv-x="579" unicode="н"/><glyph id="glyph45" d="M327.998 559.989c-162.002 0-286-123.998-286-286.998s124.997-286 286-286 286 122.999 286 286c0 163-123.998 286.998-286 286.998zm0-66.993c122.999 0 211.99-96.007 211.99-220.006 0-123.998-88.99-218.98-211.99-218.98-122.999 0-211.99 94.982-211.99 218.98 0 123.998 88.99 220.006 211.99 220.006z" horiz-adv-x="654" unicode="о"/><glyph id="glyph46" d="M62.998 547.005V0h74.01v480.012h306V0h73.983v547.005H62.997z" horiz-adv-x="579" unicode="п"/><glyph id="glyph47" d="M62.993-192h74.004v293.993h1.997C157.994 70.01 213.997-13.008 347-13.008c168.007 0 292.994 121.018 292.994 284.006 0 138.994-98.996 288.999-290.997 288.999-49.984 0-145.985-12.01-213.997-106.986h-1.997v93.977h-70.01V-192zm286.003 685.01c121.99 0 216.993-96.999 216.993-221.013 0-123.989-97.998-217.991-218.99-217.991-124.987 0-213.997 95.001-213.997 215.994 0 122.99 89.01 223.01 215.994 223.01z" horiz-adv-x="681" unicode="р"/><glyph id="glyph48" d="M518.002 159.992c-39-68.985-109.009-105.987-184.011-105.987-118.995 0-217.991 96-217.991 220.987 0 121.018 91.007 218.017 217.991 218.017 25.018 0 129.007-4.02 184.011-112.005h82.992C558 488.988 461 559.996 333.99 559.996c-191.002 0-291.995-154.998-291.995-286.003 0-142.989 105.014-287.002 291.995-287.002 150.005 0 229.002 92.005 266.004 173h-81.993z" horiz-adv-x="647" unicode="с"/><glyph id="glyph49" d="M7.99 0h87.012l144.986 218.99L385 0h87.012L284.006 277.988l188.006 269H385L239.988 335.987 95.002 546.988H7.989l187.007-269L7.99 0z" horiz-adv-x="480" unicode="х"/><glyph id="glyph50" d="M62.993 546.989V0h471.013v-139.993h74.004v206.98H519v480.001h-74.004V66.987h-308v480.001H62.993z" horiz-adv-x="619" unicode="ц"/><glyph id="glyph51" d="M62.993 546.989V0H756.99v546.989h-73.978V66.988h-236.02v480.001H372.99V66.988H136.997v480.001H62.993z" horiz-adv-x="820" unicode="ш"/><glyph id="glyph52" d="M62.993 546.989V0h221.013c147.982 0 185.983 106.012 185.983 169.005 0 62.993-38 169.005-185.983 169.005h-147.01v208.978H62.994zm74.004-275.991h146.01c77.998 0 113.003-48.986 113.003-101.992 0-53.006-35.005-102.018-113.003-102.018h-146.01v204.01z" horiz-adv-x="500" unicode="ь"/><glyph id="glyph53" d="M457.006 546.989H235.993c-131.005 0-201.987-86.987-201.987-179.991 0-95.001 64.99-164.985 158.993-172.001L43.993.001h85.015l181.988 252.996h-75.003c-92.005 0-127.983 49.012-127.983 110.007 0 115.999 111.98 116.998 127.983 116.998h147.01V.001h74.003V546.99z" horiz-adv-x="519" unicode="я"/><glyph id="glyph54" d="M518.002 159.992C478.004 90.008 408.993 54.005 334.99 54.005c-110.98 0-204.983 80.995-216.993 192.999h323.005v66.988H118.995c19 116.998 115.999 179.018 215.994 179.018 24.02 0 133.002-4.02 183.012-112.005h82.992c-41.995 105.987-135 178.992-266.004 178.992-161.99 0-292.994-117.997-292.994-286.003 0-143.988 100.994-287.002 292.994-287.002 170.004 0 240.013 116.998 265.006 173h-81.993z" horiz-adv-x="647" unicode="є"/><glyph id="glyph55" d="M62.993 0h74.004v546.989H62.993V0zm0 614.002h74.004v125.986H62.993V614.002z" horiz-adv-x="199" unicode="і"/></font>
</defs>
</svg>
